<?xml version="1.0" encoding="utf-8"?>
<!-- Generator: Adobe Illustrator 23.0.2, SVG Export Plug-In . SVG Version: 6.00 Build 0)  -->
<svg version="1.1" id="Layer_1" xmlns="http://www.w3.org/2000/svg" xmlns:xlink="http://www.w3.org/1999/xlink" x="0px" y="0px"
	 viewBox="0 0 1251.2 542.7" style="enable-background:new 0 0 1251.2 542.7;" xml:space="preserve">
<style type="text/css">
	.st0{fill:#0D1F2C;}
</style>
<path class="st0" d="M238.5,492.6l-0.1-108.2c0-0.2,0-0.5-0.1-0.7c0.2-0.2,0.3-0.5,0.3-0.8c0-0.6-0.4-1-0.9-1.2v-6.2l-1-2.5v-5.1
	c0.5-0.1,0.9-0.6,0.9-1.2c0-0.1,0-0.2,0-0.3c0.1-0.4,0.1-0.9,0.1-1.5v-27.3c0-0.5,0-1-0.1-1.4c0.1-0.2,0.1-0.5,0.1-0.7v-19.4
	c0-0.9-0.5-1.6-1.2-1.6s-1.2,0.7-1.2,1.6v6.7l0,0v-6.5l-5.4-29.4l-5.5,29.4v6.5h5.5h1.8h-7.3v-6.7c0-0.9-0.5-1.6-1.2-1.6
	s-1.2,0.7-1.2,1.6v19.5c0,0.2,0,0.5,0.1,0.7c-0.1,0.4-0.1,0.9-0.1,1.4V365c0,0.6,0.1,1.2,0.1,1.6c0,0.1,0,0.2,0,0.3
	c0,0.6,0.4,1.2,1,1.2v4.6l-1.2,3v6.2c-0.5,0.1-0.9,0.6-0.9,1.2c0,0.3,0.1,0.5,0.3,0.8c0,0.2-0.1,0.4-0.1,0.7l0.1,108.2h-2.4
	l-0.1-108.2c0-0.2,0-0.5-0.1-0.7c0.2-0.2,0.3-0.5,0.3-0.8c0-0.6-0.4-1-0.9-1.2v-6.2l-1-2.5v-5.1c0.5-0.1,0.9-0.6,0.9-1.2
	c0-0.1,0-0.2,0-0.3c0.1-0.4,0.1-0.9,0.1-1.5v-27.5c0-0.5,0-1-0.1-1.4c0.1-0.2,0.1-0.5,0.1-0.7v-19.4c0-0.9-0.5-1.6-1.2-1.6
	s-1.2,0.7-1.2,1.6v6.7l0,0v-6.5l-5.4-29.4l-5.5,29.4v6.5h5.5h1.8h-7.3v-6.7c0-0.9-0.5-1.6-1.2-1.6s-1.2,0.7-1.2,1.6v19.5
	c0,0.2,0,0.5,0.1,0.7c-0.1,0.4-0.1,0.9-0.1,1.4V365c0,0.6,0.1,1.2,0.1,1.6c0,0.1,0,0.2,0,0.3c0,0.6,0.4,1.2,1,1.2v4.6l-1.2,3v6.2
	c-0.5,0.1-0.9,0.6-0.9,1.2c0,0.3,0.1,0.5,0.3,0.8c0,0.2-0.1,0.4-0.1,0.7l0.1,108.2H195V226.7c0-1-0.2-1.9-0.4-2.7
	c0.3-5.4,0.4-10.9,0.4-16.5c0-62.8-18.8-113.7-42.1-113.7c-23.3,0-42.1,50.9-42.1,113.7c0,5.6,0.2,11.1,0.4,16.5
	c-0.3,0.9-0.4,1.8-0.4,2.7v265.9H107V272.5H0v220.1v50.1h106.9h135.9v-50.1H238.5z M223,365.5c0-0.2,0-0.4,0-0.6v-27.3
	c0-0.2,0-0.3,0-0.5l0,0V365.5L223,365.5z M223.1,384.2v106.2l-0.1-106C223,384.3,223,384.2,223.1,384.2L223.1,384.2z M203.3,365.5
	c0-0.2,0-0.4,0-0.6v-27.3c0-0.2,0-0.3,0-0.5l0,0V365.5C203.4,365.5,203.4,365.5,203.3,365.5z M203.4,384.2v106.2l-0.1-106
	C203.4,384.3,203.3,384.2,203.4,384.2L203.4,384.2z M6.7,283.6h91.6v7.4H6.7V283.6z M6.7,300.6h91.6v7.4H6.7V300.6z M6.7,317.5h91.6
	v7.4H6.7V317.5z M6.7,334.5h91.6v7.4H6.7V334.5z M6.7,351.5h91.6v7.4H6.7V351.5z M6.7,368.5h91.6v7.4H6.7V368.5z M6.7,385.5h91.6
	v7.4H6.7V385.5z"/>
<path class="st0" d="M741.8,231.8H711l-0.1,1h30.9C741.8,232.5,741.8,232.2,741.8,231.8z M676.7,247.2v1.2h21c0.4,0,0.8,0,1.1,0
	c0-0.4,0-0.7,0-1.1c-0.4,0-0.7,0-1.1,0h-21V247.2z M694.1,182.6h-33.4l-0.1,1.2h33.6C694.1,183.4,694.1,183,694.1,182.6z
	 M742.8,245.1H710l-0.1,1h33C742.9,245.8,742.8,245.5,742.8,245.1z M693.4,174.5h-32.1l-0.1,1.2h32.2
	C693.4,175.3,693.4,174.9,693.4,174.5z M344,290.1c0.6,0,1.1-0.1,1.1-0.3v-14c0-0.2-0.5-0.3-1.1-0.3s-1.1,0.1-1.1,0.3v14
	C342.9,290,343.4,290.1,344,290.1z M689.5,134.1h-25.1l-0.1,1.2h25.3C689.6,134.9,689.6,134.5,689.5,134.1z M691.1,150.3h-27.9
	l-0.1,1.2h28.1C691.2,151.1,691.1,150.7,691.1,150.3z M691.9,158.4h-29.3l-0.1,1.2H692C691.9,159.2,691.9,158.8,691.9,158.4z
	 M742.3,238.5h-31.8l-0.1,1h31.9C742.4,239.1,742.3,238.8,742.3,238.5z M690.3,142.2h-26.5l-0.1,1.2h26.7
	C690.4,143,690.4,142.6,690.3,142.2z M692.6,166.5h-30.7l-0.1,1.2h30.9C692.7,167.2,692.6,166.8,692.6,166.5z M609.9,150.3H582
	c0,0.4-0.1,0.8-0.1,1.2H610L609.9,150.3z M332.9,237.1c-1.5,0-2.8,5.3-2.8,11.8s1.2,11.8,2.8,11.8c1.5,0,2.8-5.3,2.8-11.8
	C335.6,242.4,334.4,237.1,332.9,237.1z M655.9,248.4c-0.4,0-0.8,0-1.2,0C655.4,248.4,655.9,248.4,655.9,248.4z M698.6,240.3
	c0-0.4,0-0.8-0.1-1.1c-0.2,0-0.5,0-0.7,0h-41v1.2h41C698.1,240.3,698.3,240.3,698.6,240.3z M741.2,225.2h-29.7l-0.1,1h29.8
	C741.3,225.8,741.3,225.5,741.2,225.2z M608.6,134.1h-25.1c0,0.4-0.1,0.8-0.1,1.2h25.3L608.6,134.1z M694.8,190.7h-34.7l-0.1,1.2
	h34.9C694.9,191.5,694.8,191.1,694.8,190.7z M609.3,142.2h-26.5c0,0.4-0.1,0.8-0.1,1.2h26.7L609.3,142.2z M695.5,198.8h-36l-0.1,1.2
	h36.2C695.6,199.6,695.5,199.2,695.5,198.8z M696.2,206.9h-37.3l-0.1,1.2h37.5C696.2,207.6,696.2,207.2,696.2,206.9z M697.4,223
	h-39.8l-0.1,1.2h40C697.5,223.8,697.5,223.4,697.4,223z M696.8,214.9h-38.6l-0.1,1.2h38.8C696.9,215.7,696.8,215.3,696.8,214.9z
	 M698.1,232.2c0-0.4,0-0.8-0.1-1.2c-0.1,0-0.1,0-0.2,0H657l-0.1,1.2h40.9C697.9,232.3,698,232.3,698.1,232.2z M485,290.1
	c0.6,0,1.1-0.1,1.1-0.3v-14c0-0.2-0.5-0.3-1.1-0.3s-1.1,0.1-1.1,0.3v14C483.9,290,484.4,290.1,485,290.1z M457.3,379.6h14.2
	l-7.1-12.3L457.3,379.6z M400.8,290.1c0.6,0,1.1-0.1,1.1-0.3v-14c0-0.2-0.5-0.3-1.1-0.3s-1.1,0.1-1.1,0.3v14
	C399.7,290,400.2,290.1,400.8,290.1z M462.2,290.1c0.6,0,1.1-0.1,1.1-0.3v-14c0-0.2-0.5-0.3-1.1-0.3s-1.1,0.1-1.1,0.3v14
	C461,290,461.5,290.1,462.2,290.1z M414.5,290.1c0.6,0,1.1-0.1,1.1-0.3v-14c0-0.2-0.5-0.3-1.1-0.3s-1.1,0.1-1.1,0.3v14
	C413.4,290,413.9,290.1,414.5,290.1z M466.7,290.1c0.6,0,1.1-0.1,1.1-0.3v-14c0-0.2-0.5-0.3-1.1-0.3s-1.1,0.1-1.1,0.3v14
	C465.6,290,466.1,290.1,466.7,290.1z M409.9,290.1c0.6,0,1.1-0.1,1.1-0.3v-14c0-0.2-0.5-0.3-1.1-0.3s-1.1,0.1-1.1,0.3v14
	C408.8,290,409.3,290.1,409.9,290.1z M405.4,290.1c0.6,0,1.1-0.1,1.1-0.3v-14c0-0.2-0.5-0.3-1.1-0.3s-1.1,0.1-1.1,0.3v14
	C404.3,290,404.8,290.1,405.4,290.1z M391.7,290.1c0.6,0,1.1-0.1,1.1-0.3v-14c0-0.2-0.5-0.3-1.1-0.3s-1.1,0.1-1.1,0.3v14
	C390.5,290,391,290.1,391.7,290.1z M480.4,290.1c0.6,0,1.1-0.1,1.1-0.3v-14c0-0.2-0.5-0.3-1.1-0.3s-1.1,0.1-1.1,0.3v14
	C479.3,290,479.8,290.1,480.4,290.1z M490.4,379.6l-7.1-12.3l-7.1,12.3H490.4z M471.3,290.1c0.6,0,1.1-0.1,1.1-0.3v-14
	c0-0.2-0.5-0.3-1.1-0.3s-1.1,0.1-1.1,0.3v14C470.2,290,470.7,290.1,471.3,290.1z M473.9,237.1c-1.5,0-2.8,5.3-2.8,11.8
	s1.2,11.8,2.8,11.8c1.5,0,2.8-5.3,2.8-11.8C476.6,242.4,475.4,237.1,473.9,237.1z M740.7,218.5h-28.6l-0.1,1h28.8
	C740.7,219.2,740.7,218.8,740.7,218.5z M396.2,290.1c0.6,0,1.1-0.1,1.1-0.3v-14c0-0.2-0.5-0.3-1.1-0.3s-1.1,0.1-1.1,0.3v14
	C395.1,290,395.6,290.1,396.2,290.1z M475.9,290.1c0.6,0,1.1-0.1,1.1-0.3v-14c0-0.2-0.5-0.3-1.1-0.3s-1.1,0.1-1.1,0.3v14
	C474.7,290,475.2,290.1,475.9,290.1z M737.6,185.3h-23l-0.1,1h23.2C737.7,185.9,737.6,185.6,737.6,185.3z M738.2,191.9h-24.1l-0.1,1
	h24.3C738.3,192.5,738.3,192.2,738.2,191.9z M737,178.6h-21.9l-0.1,1h22C737,179.2,737,178.9,737,178.6z M339.5,290.1
	c0.6,0,1.1-0.1,1.1-0.3v-14c0-0.2-0.5-0.3-1.1-0.3s-1.1,0.1-1.1,0.3v14C338.3,290,338.8,290.1,339.5,290.1z M738.9,198.6h-25.3
	l-0.1,1h25.4C738.9,199.2,738.9,198.9,738.9,198.6z M736.3,171.9h-20.7l-0.1,1h20.9C736.4,172.6,736.4,172.3,736.3,171.9z
	 M403.4,237.1c-1.5,0-2.8,5.3-2.8,11.8s1.2,11.8,2.8,11.8c1.5,0,2.8-5.3,2.8-11.8C406.1,242.4,404.9,237.1,403.4,237.1z
	 M739.5,205.2h-26.4l-0.1,1h26.6C739.5,205.9,739.5,205.5,739.5,205.2z M330.3,290.1c0.6,0,1.1-0.1,1.1-0.3v-14
	c0-0.2-0.5-0.3-1.1-0.3s-1.1,0.1-1.1,0.3v14C329.2,290,329.7,290.1,330.3,290.1z M325.8,290.1c0.6,0,1.1-0.1,1.1-0.3v-14
	c0-0.2-0.5-0.3-1.1-0.3s-1.1,0.1-1.1,0.3v14C324.6,290,325.1,290.1,325.8,290.1z M321.2,290.1c0.6,0,1.1-0.1,1.1-0.3v-14
	c0-0.2-0.5-0.3-1.1-0.3s-1.1,0.1-1.1,0.3v14C320.1,290,320.6,290.1,321.2,290.1z M711.9,258.4v1h31.2c0.2,0,0.4,0,0.6,0
	c0-0.3,0-0.6-0.1-0.9c-0.2,0-0.4,0-0.6,0L711.9,258.4L711.9,258.4z M334.9,290.1c0.6,0,1.1-0.1,1.1-0.3v-14c0-0.2-0.5-0.3-1.1-0.3
	s-1.1,0.1-1.1,0.3v14C333.8,290,334.3,290.1,334.9,290.1z M725.8,265.1v1h17.3c0.3,0,0.6,0,0.9,0c0-0.3,0-0.6,0-0.9
	c-0.3,0-0.6,0-0.9,0L725.8,265.1L725.8,265.1z M740.1,211.9h-27.5l-0.1,1h27.7C740.1,212.5,740.1,212.2,740.1,211.9z M794.9,288.7
	c-0.6,0-1.1,0.1-1.1,0.3v14c0,0.2,0.5,0.3,1.1,0.3s1.1-0.1,1.1-0.3v-14C796.1,288.8,795.6,288.7,794.9,288.7z M790.4,288.7
	c-0.6,0-1.1,0.1-1.1,0.3v14c0,0.2,0.5,0.3,1.1,0.3s1.1-0.1,1.1-0.3v-14C791.5,288.8,791,288.7,790.4,288.7z M694.7,455.3v-74.4
	l-44.3-22.8C681.9,386,694.7,455.3,694.7,455.3z M802.1,250.3c-1.5,0-2.8,5.3-2.8,11.8s1.2,11.8,2.8,11.8c1.5,0,2.8-5.3,2.8-11.8
	C804.8,255.5,803.6,250.3,802.1,250.3z M653.3,461.4c-4.2,0-7.7,3.4-7.7,7.7v34.3c0,4.3,3.4,7.7,7.7,7.7s7.7-3.4,7.7-7.7v-34.3
	C661,464.8,657.5,461.4,653.3,461.4z M634.5,327.8c-1.5,0-2.8,1.2-2.8,2.8s1.2,2.8,2.8,2.8s2.8-1.2,2.8-2.8S636,327.8,634.5,327.8z
	 M795.7,331.5c-0.2,0.2-0.2,0.6,0,0.8s0.6,0.2,0.8,0l5-5v7.1c0,0.3,0.2,0.5,0.5,0.5s0.5-0.2,0.5-0.5v-7.1l5,5c0.2,0.2,0.6,0.2,0.8,0
	s0.2-0.6,0-0.8l-5-5h7.1c0.3,0,0.5-0.2,0.5-0.5s-0.2-0.5-0.5-0.5h-7.1l5-5c0.2-0.2,0.2-0.6,0-0.8s-0.6-0.2-0.8,0l-5,5v-7.1
	c0-0.3-0.2-0.5-0.5-0.5s-0.5,0.2-0.5,0.5v7.1l-5-5c-0.2-0.2-0.6-0.2-0.8,0s-0.2,0.6,0,0.8l5,5h-7.1c-0.3,0-0.5,0.2-0.5,0.5
	s0.2,0.5,0.5,0.5h7.1L795.7,331.5z M802.1,325.3c0.4,0,0.7,0.3,0.7,0.7s-0.3,0.7-0.7,0.7s-0.7-0.3-0.7-0.7S801.7,325.3,802.1,325.3z
	 M813.2,288.7c-0.6,0-1.1,0.1-1.1,0.3v14c0,0.2,0.5,0.3,1.1,0.3s1.1-0.1,1.1-0.3v-14C814.3,288.8,813.8,288.7,813.2,288.7z
	 M617.3,511.1c4.3,0,7.7-3.4,7.7-7.7v-34.3c0-4.3-3.4-7.7-7.7-7.7s-7.7,3.4-7.7,7.7v34.3C609.6,507.7,613.1,511.1,617.3,511.1z
	 M804.1,288.7c-0.6,0-1.1,0.1-1.1,0.3v14c0,0.2,0.5,0.3,1.1,0.3s1.1-0.1,1.1-0.3v-14C805.2,288.8,804.7,288.7,804.1,288.7z
	 M808.6,288.7c-0.6,0-1.1,0.1-1.1,0.3v14c0,0.2,0.5,0.3,1.1,0.3s1.1-0.1,1.1-0.3v-14C809.8,288.8,809.3,288.7,808.6,288.7z
	 M799.5,288.7c-0.6,0-1.1,0.1-1.1,0.3v14c0,0.2,0.5,0.3,1.1,0.3s1.1-0.1,1.1-0.3v-14C800.6,288.8,800.1,288.7,799.5,288.7z
	 M563,245.1h-32.8c0,0.3,0,0.6-0.1,1h33L563,245.1z M560.5,211.9H533c0,0.3-0.1,0.6-0.1,1h27.7L560.5,211.9z M561.5,225.2h-29.7
	c0,0.3-0.1,0.6-0.1,1h29.8V225.2z M561,218.5h-28.6c0,0.3-0.1,0.6-0.1,1h28.8L561,218.5z M559.5,198.6h-25.3c0,0.3-0.1,0.6-0.1,1
	h25.4L559.5,198.6z M560,205.2h-26.4c0,0.3-0.1,0.6-0.1,1h26.6L560,205.2z M562,231.8h-30.8c0,0.3-0.1,0.6-0.1,1h31L562,231.8z
	 M547.2,266.1v-1h-17.3c-0.3,0-0.6,0-0.9,0c0,0.3,0,0.6,0,0.9c0.3,0,0.6,0,0.9,0L547.2,266.1L547.2,266.1z M561.7,259.4v-1h-31.8
	c-0.2,0-0.4,0-0.6,0c0,0.3,0,0.6-0.1,0.9c0.2,0,0.4,0,0.6,0L561.7,259.4L561.7,259.4z M562.5,238.5h-31.8c0,0.3,0,0.6-0.1,1h31.9
	L562.5,238.5z M802.1,338.1c6.7,0,12.2-5.5,12.2-12.2s-5.5-12.2-12.2-12.2s-12.2,5.5-12.2,12.2C789.9,332.7,795.3,338.1,802.1,338.1
	z M802.1,315.2c5.9,0,10.7,4.8,10.7,10.7s-4.8,10.7-10.7,10.7s-10.7-4.8-10.7-10.7C791.4,320,796.2,315.2,802.1,315.2z M617.7,358.1
	l-44.3,22.8v74.4C573.4,455.3,586.2,386,617.7,358.1z M419.9,379.6l-7.1-12.3l-7.1,12.3H419.9z M403.9,321.2v-7.1l5,5
	c0.2,0.2,0.6,0.2,0.8,0s0.2-0.6,0-0.8l-5-5h7.1c0.3,0,0.5-0.2,0.5-0.5s-0.2-0.5-0.5-0.5h-7.1l5-5c0.2-0.2,0.2-0.6,0-0.8
	s-0.6-0.2-0.8,0l-5,5v-7.1c0-0.3-0.2-0.5-0.5-0.5s-0.5,0.2-0.5,0.5v7.1l-5-5c-0.2-0.2-0.6-0.2-0.8,0c-0.2,0.2-0.2,0.6,0,0.8l5,5H395
	c-0.3,0-0.5,0.2-0.5,0.5s0.2,0.5,0.5,0.5h7.1l-5,5c-0.2,0.2-0.2,0.6,0,0.8s0.6,0.2,0.8,0l5-5v7.1c0,0.3,0.2,0.5,0.5,0.5
	C403.7,321.8,403.9,321.5,403.9,321.2z M402.7,312.9c0-0.4,0.3-0.7,0.7-0.7s0.7,0.3,0.7,0.7s-0.3,0.7-0.7,0.7
	S402.7,313.3,402.7,312.9z M417.3,422.8v-28.1h-11.5v28.1H417.3z M415.6,312.8c0-6.7-5.5-12.2-12.2-12.2s-12.2,5.5-12.2,12.2
	s5.5,12.2,12.2,12.2S415.6,319.6,415.6,312.8z M392.7,312.8c0-5.9,4.8-10.7,10.7-10.7c5.9,0,10.7,4.8,10.7,10.7s-4.8,10.7-10.7,10.7
	S392.7,318.7,392.7,312.8z M386.9,379.6h14.2l-7.1-12.3L386.9,379.6z M379.9,387.1h-0.2c-2.1,0-3.9,1.1-3.9,2.5s1.7,2.5,3.9,2.5h0.3
	c0,0.1,0,0.3,0,0.4l0.4,66h5l-0.4-66c0-0.1,0-0.3,0-0.4h36.9c0,0.1,0,0.3,0,0.4l0.4,66h5l-0.4-66c0-0.1,0-0.3,0-0.4h0.4
	c2.1,0,3.9-1.1,3.9-2.5s-1.7-2.5-3.9-2.5h-0.2v-9.8l-22-39.6l-2.1-3.8l-2,3.8l-21.1,39.7V387.1z M422.8,378.4v6.8h-17.2l-0.2-17.5
	h5.1l-5.2-9l-0.1-12.4L422.8,378.4z M384,378.4l17-32l0.1,13l-4.8,8.4h4.9l0.1,17.5h-17.2v-6.9H384z M476.3,394.7v28.1h11.5v-28.1
	H476.3z M486.1,312.8c0-6.7-5.5-12.2-12.2-12.2s-12.2,5.5-12.2,12.2s5.5,12.2,12.2,12.2S486.1,319.6,486.1,312.8z M463.1,312.8
	c0-5.9,4.8-10.7,10.7-10.7s10.7,4.8,10.7,10.7s-4.8,10.7-10.7,10.7C468,323.5,463.1,318.7,463.1,312.8z M401,422.8v-28.1h-11.5v28.1
	H401z M474.4,321.2v-7.1l5,5c0.2,0.2,0.6,0.2,0.8,0s0.2-0.6,0-0.8l-5-5h7.1c0.3,0,0.5-0.2,0.5-0.5s-0.2-0.5-0.5-0.5h-7.1l5-5
	c0.2-0.2,0.2-0.6,0-0.8s-0.6-0.2-0.8,0l-5,5v-7.1c0-0.3-0.2-0.5-0.5-0.5s-0.5,0.2-0.5,0.5v7.1l-5-5c-0.2-0.2-0.6-0.2-0.8,0
	s-0.2,0.6,0,0.8l5,5h-7.1c-0.3,0-0.5,0.2-0.5,0.5s0.2,0.5,0.5,0.5h7.1l-5,5c-0.2,0.2-0.2,0.6,0,0.8s0.6,0.2,0.8,0l5-5v7.1
	c0,0.3,0.2,0.5,0.5,0.5C474.2,321.8,474.4,321.5,474.4,321.2z M473.2,312.9c0-0.4,0.3-0.7,0.7-0.7s0.7,0.3,0.7,0.7s-0.3,0.7-0.7,0.7
	S473.2,313.3,473.2,312.9z M558.9,191.9h-24.1c0,0.3-0.1,0.6-0.1,1H559L558.9,191.9z M459.9,394.7v28.1h11.5v-28.1H459.9z
	 M346.8,422.8v-28.1h-11.5v28.1H346.8z M330.5,422.8v-28.1H319v28.1H330.5z M861,528.3V343.9h-16.9V204.1h1.4c0.7,0,1.2-0.7,1.2-1.5
	s-0.5-1.5-1.2-1.5h-1.4l0,0h1.2v-6.8l-7.5-30.5l-7.7,30.5v6.7h1.2v0.1h-1.4c-0.7,0-1.2,0.7-1.2,1.5s0.5,1.5,1.2,1.5h1.4v139.7h-3.6
	v-33.5c0-1.5-1.2-2.8-2.8-2.8c-0.7,0-1.3,0.2-1.7,0.6c0.2-0.4,0.2-0.8,0.2-1.2v-39.1c0-1.7-1.4-3.1-3.1-3.2l-18-72.7l-18.4,72.7
	c-1.7,0.1-3.1,1.5-3.1,3.2v39.1c0,0.3,0.1,0.6,0.2,0.9c-0.4-0.2-0.9-0.4-1.4-0.4c-1.5,0-2.8,1.2-2.8,2.8v33.5h-11.1V400l-11-6.1h0.5
	l-6.1-164.3c0-3.9-3.7-36-7.8-65.8c-6.6-47.5-10.1-59.6-12.6-63v-1.6h-0.8l-0.2-6c1.3,0.3,2.6,0.6,2.6,0.6c0.7,0,1.3-0.6,1.3-1.3
	c0-0.7-0.6-1.3-1.3-1.3h-2.7L726.8,70c0.7-0.3,1.2-1,1.4-1.7c1.1-0.2,2-1.3,2-2.5s-0.9-2.2-2-2.5c-0.2-1.1-1.3-2-2.5-2
	s-2.2,0.9-2.5,2c-1.1,0.2-2,1.3-2,2.5s0.9,2.2,2,2.5c0.2,0.8,0.7,1.5,1.5,1.8l-0.8,21.1h-2.7c-0.7,0-1.3,0.6-1.3,1.3
	c0,0.7,0.6,1.3,1.3,1.3c0,0,1.4-0.4,2.6-0.6l-0.2,6h-0.8v1.6c-2.4,3.4-6,15.5-12.6,63c-1.3,9.6-2.6,19.4-3.7,28.4
	c-1.6-14.5-4.2-35.9-7.1-57.5c0-0.1,0-0.1,0-0.2c-0.1-1-0.3-2-0.4-3c0-0.3-0.1-0.5-0.1-0.8c-0.1-0.9-0.3-1.8-0.4-2.7
	c0-0.1,0-0.3-0.1-0.4c1.2-0.4,2-1.5,2-2.8c0-1.4-1-2.5-2.2-2.8h0.8c1.6,0,2.9-1.3,2.9-2.9s-1.3-2.9-2.9-2.9h-2.2l0,0
	c-0.1-0.5-0.1-0.9-0.2-1.4c-0.1-0.7-0.2-1.5-0.3-2.2c-0.1-0.4-0.1-0.8-0.2-1.2c-0.1-0.8-0.2-1.5-0.3-2.3c-0.1-0.4-0.1-0.7-0.2-1.1
	c-0.1-0.7-0.2-1.4-0.3-2.1c-0.1-0.4-0.1-0.8-0.2-1.2c-0.1-0.7-0.2-1.4-0.3-2.1c-0.1-0.4-0.1-0.7-0.2-1.1c-0.1-0.7-0.2-1.4-0.3-2.1
	c-0.1-0.3-0.1-0.7-0.2-1c-0.1-0.7-0.2-1.5-0.4-2.2c0-0.2-0.1-0.5-0.1-0.7c-0.1-0.8-0.3-1.6-0.4-2.4c0-0.2-0.1-0.5-0.1-0.7
	c-0.1-0.8-0.3-1.6-0.4-2.4c0-0.2-0.1-0.5-0.1-0.7c-0.1-0.8-0.3-1.6-0.4-2.3c0-0.2-0.1-0.4-0.1-0.6c-0.1-0.8-0.3-1.5-0.4-2.3
	c0-0.2-0.1-0.4-0.1-0.6c-0.1-0.8-0.3-1.5-0.4-2.2c0-0.2-0.1-0.4-0.1-0.5c-0.1-0.7-0.3-1.5-0.4-2.2c0-0.2-0.1-0.3-0.1-0.5
	c-0.1-0.7-0.3-1.4-0.4-2.1c0-0.1-0.1-0.3-0.1-0.4c-0.1-0.7-0.3-1.4-0.4-2.1c0-0.1,0-0.2-0.1-0.3c-0.1-0.7-0.3-1.4-0.4-2
	c0-0.1,0-0.2-0.1-0.2c-0.1-0.7-0.3-1.3-0.4-2v-0.1c-0.1-0.6-0.3-1.3-0.4-1.9v-0.1c-0.1-0.6-0.3-1.2-0.4-1.8c0-0.1,0-0.1,0-0.2
	c-0.1-0.5-0.3-1.1-0.4-1.6c0-0.1,0-0.1-0.1-0.2c-0.1-0.5-0.3-1-0.4-1.4c0-0.1,0-0.1-0.1-0.2c-0.1-0.4-0.3-0.8-0.4-1.2
	c0-0.1,0-0.1-0.1-0.2l0,0c0-0.1,0-0.1,0-0.2c-0.4-0.6-4.1-11.7-6.8-14l-0.3-7.1c1.6,0.3,3.2,0.7,3.2,0.7c0.9,0,1.6-0.7,1.6-1.6
	s-0.7-1.6-1.6-1.6h-3.4l-1-25.7c0.8-0.4,1.5-1.2,1.7-2.1c1.4-0.3,2.4-1.5,2.4-3s-1-2.7-2.4-3c-0.3-1.4-1.5-2.4-3-2.4s-2.7,1-3,2.4
	c-1.4,0.3-2.4,1.5-2.4,3s1,2.7,2.4,3c0.2,1,0.9,1.8,1.8,2.2l-1,25.6h-3.3c-0.9,0-1.6,0.7-1.6,1.6s0.7,1.6,1.6,1.6
	c0,0,1.7-0.4,3.2-0.7l-0.3,7.9h-0.3v1.5c-2.6,3.4-6.7,16.1-14.1,68.3h-1.9c-1.6,0-2.9,1.3-2.9,2.9s1.3,2.9,2.9,2.9h1.1
	c-0.1,0.8-0.2,1.5-0.3,2.3c-5,36.1-9.4,75.1-9.5,79.8l-1.3,33.8v-39.7c0-6.4-5.2-39.4-11.5-39.4h-3.8c-4.4,0-8.3,16.1-10.2,28
	c-1.7-15.7-4.7-39.6-7.8-62.4c-0.1-0.8-0.2-1.5-0.3-2.3h1.1c1.6,0,2.9-1.3,2.9-2.9s-1.3-2.9-2.9-2.9h-1.9
	C606,64.4,602,51.7,599.4,48.3v-1.7h-0.3l-0.3-7.9c1.6,0.3,3.2,0.7,3.2,0.7c0.9,0,1.6-0.7,1.6-1.6s-0.7-1.6-1.6-1.6h-3.3l-1-25.6
	c0.9-0.4,1.6-1.2,1.8-2.2c1.4-0.3,2.4-1.5,2.4-3s-1-2.7-2.4-3C599.2,1,598,0,596.5,0s-2.7,1-3,2.4c-1.4,0.3-2.4,1.5-2.4,3
	s1,2.7,2.4,3c0.2,0.9,0.8,1.7,1.7,2.1l-1,25.7h-3.3c-0.9,0-1.6,0.7-1.6,1.6s0.7,1.6,1.6,1.6c0,0,1.6-0.4,3.2-0.7l-0.3,7.1
	c-2.7,2.4-6.4,13.4-6.8,14c0,0.1,0,0.1,0,0.2l0,0c0,0.1,0,0.1-0.1,0.2c-0.1,0.4-0.3,0.8-0.4,1.2c0,0.1,0,0.1-0.1,0.2
	c-0.1,0.4-0.3,0.9-0.4,1.4c0,0.1,0,0.1-0.1,0.2c-0.1,0.5-0.3,1-0.4,1.6c0,0.1,0,0.1,0,0.2c-0.1,0.6-0.3,1.1-0.4,1.8v0.1
	c-0.1,0.6-0.3,1.2-0.4,1.9v0.1c-0.1,0.6-0.3,1.3-0.4,2c0,0.1,0,0.2-0.1,0.2c-0.1,0.7-0.3,1.3-0.4,2c0,0.1,0,0.2-0.1,0.3
	c-0.1,0.7-0.3,1.4-0.4,2.1c0,0.1-0.1,0.3-0.1,0.4c-0.1,0.7-0.3,1.4-0.4,2.1c0,0.2-0.1,0.3-0.1,0.5c-0.1,0.7-0.3,1.4-0.4,2.2
	c0,0.2-0.1,0.4-0.1,0.5c-0.1,0.7-0.3,1.5-0.4,2.2c0,0.2-0.1,0.4-0.1,0.6c-0.1,0.7-0.3,1.5-0.4,2.3c0,0.2-0.1,0.4-0.1,0.6
	c-0.1,0.8-0.3,1.5-0.4,2.3c0,0.2-0.1,0.5-0.1,0.7c-0.1,0.8-0.3,1.6-0.4,2.4c0,0.2-0.1,0.5-0.1,0.7c-0.1,0.8-0.3,1.6-0.4,2.4
	c0,0.2-0.1,0.5-0.1,0.7c-0.1,0.7-0.2,1.5-0.4,2.2c-0.1,0.3-0.1,0.7-0.2,1c-0.1,0.7-0.2,1.4-0.3,2.1c-0.1,0.4-0.1,0.7-0.2,1.1
	c-0.1,0.7-0.2,1.4-0.3,2.1c-0.1,0.4-0.1,0.8-0.2,1.2c-0.1,0.7-0.2,1.4-0.3,2.1c-0.1,0.4-0.1,0.7-0.2,1.1c-0.1,0.8-0.2,1.5-0.3,2.3
	c-0.1,0.4-0.1,0.8-0.2,1.2c-0.1,0.7-0.2,1.5-0.3,2.2c-0.1,0.5-0.1,0.9-0.2,1.4l0,0h-2.2c-1.6,0-2.9,1.3-2.9,2.9s1.3,2.9,2.9,2.9h0.8
	c-1.3,0.3-2.2,1.5-2.2,2.8s0.9,2.4,2,2.8c0,0.1,0,0.3-0.1,0.4c-0.1,0.9-0.3,1.8-0.4,2.7c0,0.3-0.1,0.5-0.1,0.8c-0.1,1-0.3,2-0.4,3
	c0,0.1,0,0.1,0,0.2c-3,21.6-5.5,43-7.1,57.5c-1.1-9-2.4-18.8-3.7-28.4c-6.6-47.5-10.1-59.6-12.6-63v-1.6h-0.8l-0.2-6
	c1.3,0.3,2.6,0.6,2.6,0.6c0.7,0,1.3-0.6,1.3-1.3c0-0.7-0.6-1.3-1.3-1.3h-2.7L548.7,70c0.8-0.3,1.3-1,1.5-1.8c1.1-0.2,2-1.3,2-2.5
	s-0.9-2.2-2-2.5c-0.2-1.1-1.3-2-2.5-2s-2.2,0.9-2.5,2c-1.1,0.2-2,1.3-2,2.5s0.9,2.2,2,2.5c0.2,0.8,0.7,1.4,1.4,1.7l-0.8,21.2h-2.7
	c-0.7,0-1.3,0.6-1.3,1.3c0,0.7,0.6,1.3,1.3,1.3c0,0,1.4-0.4,2.6-0.6l-0.2,6h-0.8v1.6c-2.4,3.4-6,15.5-12.6,63
	c-4.1,29.7-7.8,61.8-7.8,65.8l-2.7,73.2h-21.8V297c0-1.5-1.2-2.8-2.8-2.8c-0.7,0-1.3,0.2-1.7,0.6c0.2-0.4,0.2-0.8,0.2-1.2v-39.1
	c0-1.7-1.4-3.1-3.1-3.2l-18-72.7L456,251.3c-1.7,0.1-3.1,1.5-3.1,3.2v39.1c0,0.3,0.1,0.6,0.2,0.9c-0.4-0.2-0.9-0.4-1.4-0.4
	c-1.5,0-2.8,1.2-2.8,2.8v5.7h-19.7v-5.7c0-1.5-1.2-2.8-2.8-2.8c-0.7,0-1.3,0.2-1.7,0.6c0.2-0.4,0.2-0.8,0.2-1.2v-39.1
	c0-1.7-1.4-3.1-3.1-3.2l-18-72.7l-18.4,72.7c-1.7,0.1-3.1,1.5-3.1,3.2v39.1c0,0.3,0.1,0.6,0.2,0.9c-0.4-0.2-0.9-0.4-1.4-0.4
	c-1.5,0-2.8,1.2-2.8,2.8v5.7h-19.7v-5.7c0-1.5-1.2-2.8-2.8-2.8c-0.7,0-1.3,0.2-1.7,0.6c0.2-0.4,0.2-0.8,0.2-1.2v-39.1
	c0-1.7-1.4-3.1-3.1-3.2l-18-72.7l-18.4,72.7c-1.7,0.1-3.1,1.5-3.1,3.2v39.1c0,0.3,0.1,0.6,0.2,0.9c-0.4-0.2-0.9-0.4-1.4-0.4
	c-1.5,0-2.8,1.2-2.8,2.8v5.7h-23.4v49.1h23.4v4c0,1.5,1.2,2.8,2.8,2.8c0.8,0,1.4-0.3,1.9-0.8c0.5,0.8,1.5,1.3,2.6,1.3h1.8l2.8-5H315
	c-0.2,0-0.4,0-0.5,0c0-0.4,0.1-0.8,0.1-1.3v-55.1c0-0.3,0-0.7,0-1c0.1,0,0.3,0,0.4,0c0.5,0,1-0.1,1.4-0.3h33.4
	c0.4,0.2,0.9,0.3,1.4,0.3c0.1,0,0.3,0,0.4,0c0,0.3,0,0.6,0,1v55.1c0,0.4,0,0.9,0.1,1.3c-0.2,0-0.3,0-0.5,0h-5.1l2.8,5h2.3
	c1.2,0,2.3-0.6,2.7-1.5c0.5,0.6,1.3,1,2.1,1c1.5,0,2.8-1.2,2.8-2.8v-4h19.3v4c0,1.5,1.2,2.8,2.8,2.8c0.8,0,1.4-0.3,1.9-0.8
	c0.5,0.8,1.5,1.3,2.6,1.3h1.8l2.8-5h-4.6c-0.2,0-0.4,0-0.5,0c0-0.4,0.1-0.8,0.1-1.3v-55.1c0-0.3,0-0.7,0-1c0.1,0,0.3,0,0.4,0
	c0.5,0,1-0.1,1.4-0.3h33.3c0.4,0.2,0.9,0.3,1.4,0.3c0.1,0,0.3,0,0.4,0c0,0.3,0,0.6,0,1v55.1c0,0.4,0,0.9,0.1,1.3c-0.2,0-0.3,0-0.5,0
	h-5.1l2.8,5h2.3c1.2,0,2.3-0.6,2.7-1.5c0.5,0.6,1.3,1,2.1,1c1.5,0,2.8-1.2,2.8-2.8v-4h19.7v4c0,1.5,1.2,2.8,2.8,2.8
	c0.8,0,1.4-0.3,1.9-0.8c0.5,0.8,1.5,1.3,2.6,1.3h1.8l2.8-5h-4.6c-0.2,0-0.4,0-0.5,0c0-0.4,0.1-0.8,0.1-1.3v-55.1c0-0.3,0-0.7,0-1
	c0.1,0,0.3,0,0.4,0c0.5,0,1-0.1,1.4-0.3h33.4c0.4,0.2,0.9,0.3,1.4,0.3c0.1,0,0.3,0,0.4,0c0,0.3,0,0.6,0,1v55.1c0,0.4,0,0.9,0.1,1.3
	c-0.2,0-0.3,0-0.5,0h-5.1l2.8,5h2.3c1.2,0,2.3-0.6,2.7-1.5c0.5,0.6,1.3,1,2.1,1c1.5,0,2.8-1.2,2.8-2.8v-4h19.9l-1.5,39.9L501,401
	l-3,53.2l-0.3-62.3c0-0.1,0-0.3,0-0.4h0.4c2.1,0,3.9-1.1,3.9-2.5s-1.7-2.5-3.9-2.5h-0.2v-9.8L476.1,337l-2.1-3.8l-2,3.8l-21.1,39.7
	v9.7h-0.8c-2.1,0-3.9,1.1-3.9,2.5s1.7,2.5,3.9,2.5h0.3c0,0.1,0,0.3,0,0.4l0.4,66h5l-0.4-66c0-0.1,0-0.3,0-0.4h36.9
	c0,0.1,0,0.3,0,0.4l0.4,66h4.7l-0.3,4.6V458H305.7v61.4h-13.2V357.7h-8.2v181.1h576.8L861,528.3L861,528.3L861,528.3z M307.6,343.9
	h-15.2v-32.7h15.2V343.9z M322.2,255.7l10.9-42.9l10.6,42.9v8.6l-21.5-0.1V255.7z M347.8,291.9h-29.7v-19.5l29.7,0.1V291.9z
	 M378.1,343.9h-19.7v-32.7h19.7V343.9z M392.6,255.7l10.9-42.9l10.6,42.9v8.6l-21.5-0.1V255.7z M418.2,291.9h-29.7v-19.5l29.7,0.1
	V291.9z M448.6,343.9h-19.7v-32.7h19.7V343.9z M463.1,255.7l10.9-42.9l10.6,42.9v8.6l-21.5-0.1V255.7z M488.7,291.9H459v-19.5
	l29.7,0.1V291.9z M517.8,343.9h-18.4v-32.7h18.4V343.9z M454.5,385.3v-6.8l17-32l0.1,13l-4.8,8.4h4.9l0.1,17.5h-17.3V385.3z
	 M493.2,385.3H476l-0.2-17.5h5.1l-5.2-9l-0.1-12.4l17.6,32.1L493.2,385.3L493.2,385.3z M488.8,471.9H310.5v-8h178.3V471.9z
	 M749.4,391.1l-35.1-19.5l-1.2-31.2l30.4,14.3c0.2,0.1,0.5,0.2,0.7,0.2c0.7,0,1.3-0.4,1.6-1c0.4-0.9,0-1.9-0.8-2.3l-12.7-5.9
	l-19.4-9.1l-0.2-4.9l30.8,14.4c0.2,0.1,0.5,0.2,0.7,0.2c0.7,0,1.3-0.4,1.6-1c0.4-0.9,0-1.9-0.8-2.3l-32.3-15.4l-0.1-3.2l31.7,14.9
	c0.2,0.1,0.5,0.2,0.7,0.2c0.7,0,1.3-0.4,1.6-1c0.4-0.9,0-1.9-0.8-2.3l-1.5-0.7v-48.6c0-0.6-1.1-1-2.4-1s-2.4,0.5-2.4,1v46.3
	l-6.3-2.9v-47.9c0-0.6-1.1-1-2.4-1c-1.3,0-2.4,0.5-2.4,1v45.7l-6.4-3c0.1-0.1,0.1-0.2,0.1-0.3V276c0-0.6-1.1-1-2.4-1
	c-1.3,0-2.4,0.5-2.4,1v46.9l-4.9-2.3l-1.4-37.3v-10.9c0-0.2-0.2-0.4-0.4-0.6l-0.2-6.1l32.9,12.7c0.2,0.1,0.5,0.1,0.7,0.1
	c0.5,0,0.9-0.2,1.2-0.5L749.4,391.1z M725.4,111.6h2.2c0.5,0,0.8,0.4,0.8,0.8s-0.4,0.8-0.8,0.8h-2.2c-0.5,0-0.8-0.4-0.8-0.8
	S725,111.6,725.4,111.6z M725.4,116h2.2c0.5,0,0.8,0.4,0.8,0.8s-0.4,0.8-0.8,0.8h-2.2c-0.5,0-0.8-0.4-0.8-0.8S725,116,725.4,116z
	 M724.2,120.3h4.7c0.5,0,0.8,0.4,0.8,0.8s-0.4,0.8-0.8,0.8h-4.7c-0.5,0-0.8-0.4-0.8-0.8S723.8,120.3,724.2,120.3z M723.5,124.6h6.1
	c0.5,0,0.8,0.4,0.8,0.8s-0.4,0.8-0.8,0.8h-6.1c-0.5,0-0.8-0.4-0.8-0.8S723.1,124.6,723.5,124.6z M722.6,129h8c0.5,0,0.8,0.4,0.8,0.8
	s-0.4,0.8-0.8,0.8h-8c-0.5,0-0.8-0.4-0.8-0.8S722.1,129,722.6,129z M721.8,133.3h9.5c0.5,0,0.8,0.4,0.8,0.8s-0.4,0.8-0.8,0.8h-9.5
	c-0.5,0-0.8-0.4-0.8-0.8S721.4,133.3,721.8,133.3z M721,137.6h11.1c0.5,0,0.8,0.4,0.8,0.8s-0.4,0.8-0.8,0.8H721
	c-0.5,0-0.8-0.4-0.8-0.8S720.5,137.6,721,137.6z M720,141.9h13.1c0.5,0,0.8,0.4,0.8,0.8s-0.4,0.8-0.8,0.8H720
	c-0.5,0-0.8-0.4-0.8-0.8S719.6,141.9,720,141.9z M719.1,146.3h15c0.5,0,0.8,0.4,0.8,0.8s-0.4,0.8-0.8,0.8h-15
	c-0.5,0-0.8-0.4-0.8-0.8S718.6,146.3,719.1,146.3z M717.6,150.6h17.9c0.5,0,0.8,0.4,0.8,0.8s-0.4,0.8-0.8,0.8h-17.9
	c-0.5,0-0.8-0.4-0.8-0.8S717.2,150.6,717.6,150.6z M716.8,154.9h19.6c0.5,0,0.8,0.4,0.8,0.8s-0.4,0.8-0.8,0.8h-19.6
	c-0.5,0-0.8-0.4-0.8-0.8S716.3,154.9,716.8,154.9z M715.6,167.5c0.1-0.6,0.2-1.2,0.2-1.8c4.2-2.4,8.1-3.3,10.2-3.6l0,0
	c0,0,4.2,0.1,9.8,3.5c0.1,0.6,0.2,1.2,0.3,1.8c4.3,31,7.4,59.7,7.4,62.3v0.1l1.7,45c-0.1-0.1-0.3-0.2-0.4-0.2l-34.4-13.3l-0.3-8.6
	h33c0.1,0,0.2,0,0.2,0c0-0.3,0-0.6-0.1-1c-0.1,0-0.1,0-0.2,0h-33.3l-1-28.2C709.9,213,712.4,190.9,715.6,167.5z M677,61.1h2.7
	c0.5,0,0.8,0.4,0.8,0.8s-0.4,0.8-0.8,0.8H677c-0.5,0-0.8-0.4-0.8-0.8S676.5,61.1,677,61.1z M677,66.4h2.7c0.5,0,0.8,0.4,0.8,0.8
	s-0.4,0.8-0.8,0.8H677c-0.5,0-0.8-0.4-0.8-0.8S676.5,66.4,677,66.4z M675.5,71.6h5.7c0.5,0,0.8,0.4,0.8,0.8c0,0.5-0.4,0.8-0.8,0.8
	h-5.7c-0.5,0-0.8-0.4-0.8-0.8C674.7,72,675.1,71.6,675.5,71.6z M674.7,76.9h7.4c0.5,0,0.8,0.4,0.8,0.8s-0.4,0.8-0.8,0.8h-7.4
	c-0.5,0-0.8-0.4-0.8-0.8S674.2,76.9,674.7,76.9z M673.5,82.1h9.7c0.5,0,0.8,0.4,0.8,0.8s-0.4,0.8-0.8,0.8h-9.7
	c-0.5,0-0.8-0.4-0.8-0.8S673,82.1,673.5,82.1z M672.6,87.4h11.5c0.5,0,0.8,0.4,0.8,0.8s-0.4,0.8-0.8,0.8h-11.5
	c-0.5,0-0.8-0.4-0.8-0.8S672.2,87.4,672.6,87.4z M671.6,92.6h13.5c0.5,0,0.8,0.4,0.8,0.8s-0.4,0.8-0.8,0.8h-13.5
	c-0.5,0-0.8-0.4-0.8-0.8S671.1,92.6,671.6,92.6z M670.4,97.9h15.9c0.5,0,0.8,0.4,0.8,0.8s-0.4,0.8-0.8,0.8h-15.9
	c-0.5,0-0.8-0.4-0.8-0.8S670,97.9,670.4,97.9z M669.3,103.2h18.2c0.5,0,0.8,0.4,0.8,0.8s-0.4,0.8-0.8,0.8h-18.2
	c-0.5,0-0.8-0.4-0.8-0.8S668.8,103.2,669.3,103.2z M667.5,108.4h21.7c0.5,0,0.8,0.4,0.8,0.8s-0.4,0.8-0.8,0.8h-21.7
	c-0.5,0-0.8-0.4-0.8-0.8S667.1,108.4,667.5,108.4z M666.5,113.7h23.8c0.5,0,0.8,0.4,0.8,0.8s-0.4,0.8-0.8,0.8h-23.8
	c-0.5,0-0.8-0.4-0.8-0.8S666,113.7,666.5,113.7z M654.9,204.4c0-3.6,4.1-40.3,9-76.2c0.1-0.4,0.1-0.9,0.2-1.3
	c7.1-4.5,12.5-4.6,12.5-4.6c-0.1-0.8,0.4-0.9,0.5-0.3v0.3c0,0,5.4,0.1,12.5,4.6c0.1,0.4,0.1,0.9,0.2,1.3c4.9,35.9,9,72.6,9,76.2v0.1
	l2.1,55.4c-0.3-0.4-0.7-0.8-1.2-1l-44.1-17.1c-0.7-0.3-1.5-0.2-2.1,0.2L654.9,204.4z M650.8,314.1c0.2,0.4,0.6,0.8,1,1.1l47.3,22.2
	c0.3,0.1,0.6,0.2,0.9,0.2c0.8,0,1.6-0.5,1.9-1.2c0.5-1.1,0-2.3-1-2.8l-1.8-1v-59c0-0.7-1.3-1.3-2.9-1.3c-1.6,0-2.9,0.6-2.9,1.3v56.3
	l-7.6-3.6v-58.2c0-0.7-1.3-1.3-2.9-1.3c-1.6,0-2.9,0.6-2.9,1.3v55.5l-7.8-3.6c0.1-0.1,0.2-0.3,0.2-0.4v-59.2c0-0.7-1.3-1.3-2.9-1.3
	c-1.6,0-2.9,0.6-2.9,1.3v57l-7.6-3.6V256c0-0.7-1.3-1.3-2.9-1.3c-1.6,0-2.9,0.6-2.9,1.3v55.2c-0.8-0.1-1.7,0.3-2.1,1.1l2.5-66.3
	c0.2,0.1,0.3,0.2,0.5,0.3l44.1,17.1c0.3,0.1,0.6,0.2,0.8,0.2c0.9,0,1.7-0.5,2.1-1.3l3.9,104.2l-53-29.5c0.8-0.5,1.5-1.1,2.2-1.7
	l44.4,20.8c0.3,0.1,0.6,0.2,0.9,0.2c0.8,0,1.6-0.5,1.9-1.2c0.5-1.1,0-2.3-1-2.8l-44-20.6c0.2-0.6,0.3-1.2,0.3-1.8
	c0-1.7-0.6-3.3-1.7-4.6l43.6,20.5c0.3,0.1,0.6,0.2,0.9,0.2c0.8,0,1.6-0.5,1.9-1.2c0.5-1.1,0-2.3-1-2.8L653,319.8
	c-0.8-0.4-1.6-0.2-2.3,0.3L650.8,314.1z M633.5,190.8c0-0.5,0.4-1,1-1s1,0.4,1,1v44.3c0,0.5-0.4,1-1,1s-1-0.4-1-1V190.8z
	 M627.7,245.2c-1.7-1.7-1.7-4.5,0-6.2l0.3-0.3c1.7-1.7,4.5-1.7,6.2,0l0.1,0.1l0.1-0.1c1.7-1.7,4.5-1.7,6.2,0l0.3,0.3
	c1.7,1.7,1.7,4.5,0,6.2l-0.1,0.1l0.1,0.1c1.7,1.7,1.7,4.5,0,6.2l-0.3,0.3c-1.7,1.7-4.5,1.7-6.2,0l-0.1-0.1l-0.1,0.1
	c-1.7,1.7-4.5,1.7-6.2,0l-0.3-0.3c-1.7-1.7-1.7-4.5,0-6.2V245.2L627.7,245.2z M635.4,256.2v44.3c0,0.5-0.4,1-1,1s-1-0.4-1-1v-44.3
	c0-0.5,0.4-1,1-1S635.4,255.6,635.4,256.2z M594.8,61.1h2.7c0.5,0,0.8,0.4,0.8,0.8s-0.4,0.8-0.8,0.8h-2.7c-0.5,0-0.8-0.4-0.8-0.8
	S594.4,61.1,594.8,61.1z M594.8,66.4h2.7c0.5,0,0.8,0.4,0.8,0.8s-0.4,0.8-0.8,0.8h-2.7c-0.5,0-0.8-0.4-0.8-0.8
	S594.4,66.4,594.8,66.4z M593.4,71.6h5.7c0.5,0,0.8,0.4,0.8,0.8c0,0.5-0.4,0.8-0.8,0.8h-5.7c-0.5,0-0.8-0.4-0.8-0.8
	S592.9,71.6,593.4,71.6z M592.5,76.9h7.4c0.5,0,0.8,0.4,0.8,0.8s-0.4,0.8-0.8,0.8h-7.4c-0.5,0-0.8-0.4-0.8-0.8
	S592.1,76.9,592.5,76.9z M591.3,82.1h9.7c0.5,0,0.8,0.4,0.8,0.8s-0.4,0.8-0.8,0.8h-9.7c-0.5,0-0.8-0.4-0.8-0.8
	S590.9,82.1,591.3,82.1z M590.5,87.4H602c0.5,0,0.8,0.4,0.8,0.8S602.4,89,602,89h-11.5c-0.5,0-0.8-0.4-0.8-0.8S590,87.4,590.5,87.4z
	 M589.4,92.6h13.5c0.5,0,0.8,0.4,0.8,0.8s-0.4,0.8-0.8,0.8h-13.5c-0.5,0-0.8-0.4-0.8-0.8S589,92.6,589.4,92.6z M588.3,97.9h15.9
	c0.5,0,0.8,0.4,0.8,0.8s-0.4,0.8-0.8,0.8h-15.9c-0.5,0-0.8-0.4-0.8-0.8S587.8,97.9,588.3,97.9z M587.1,103.2h18.2
	c0.5,0,0.8,0.4,0.8,0.8s-0.4,0.8-0.8,0.8h-18.2c-0.5,0-0.8-0.4-0.8-0.8S586.7,103.2,587.1,103.2z M585.4,108.4h21.7
	c0.5,0,0.8,0.4,0.8,0.8s-0.4,0.8-0.8,0.8h-21.7c-0.5,0-0.8-0.4-0.8-0.8S584.9,108.4,585.4,108.4z M584.3,113.7h23.8
	c0.5,0,0.8,0.4,0.8,0.8s-0.4,0.8-0.8,0.8h-23.8c-0.5,0-0.8-0.4-0.8-0.8S583.9,113.7,584.3,113.7z M574.3,204.5v-0.1
	c0-3.6,4.1-40.3,9-76.2c0.1-0.4,0.1-0.9,0.2-1.3c7.1-4.5,12.5-4.6,12.5-4.6V122c0.1-0.6,0.6-0.5,0.5,0.3c0,0,5.4,0.1,12.5,4.6
	c0.1,0.4,0.1,0.9,0.2,1.3c4.9,35.9,9,72.6,9,76.2l1.4,37.6c-0.6-0.4-1.4-0.5-2.1-0.2l-44.1,17.1c-0.5,0.2-0.9,0.6-1.2,1L574.3,204.5
	z M572.1,262.1c0.4,0.8,1.2,1.3,2.1,1.3c0.3,0,0.6-0.1,0.8-0.2l44.1-17.1c0.2-0.1,0.4-0.2,0.5-0.3l1.3,33.8v31.5
	c-0.3-0.1-0.6-0.1-0.9-0.1v-55.2c0-0.7-1.3-1.3-2.9-1.3c-1.6,0-2.9,0.6-2.9,1.3v57.8l-7.6,3.6v-57c0-0.7-1.3-1.3-2.9-1.3
	c-1.6,0-2.9,0.6-2.9,1.3v59.2c0,0.1,0.1,0.3,0.2,0.4l-7.8,3.6v-55.5c0-0.7-1.3-1.3-2.9-1.3c-1.6,0-2.9,0.6-2.9,1.3v58.2l-7.6,3.6
	v-56.1c0-0.7-1.3-1.3-2.9-1.3c-1.6,0-2.9,0.6-2.9,1.3v59l-1.9,0.9c-1.1,0.5-1.5,1.8-1,2.8c0.4,0.8,1.1,1.2,1.9,1.2
	c0.3,0,0.6-0.1,0.9-0.2l47.1-22.1v4c-0.3,0-0.5,0.1-0.8,0.2l-47.3,22.2c-1.1,0.5-1.5,1.8-1,2.8c0.4,0.8,1.1,1.2,1.9,1.2
	c0.3,0,0.6-0.1,0.9-0.2l38.1-17.8c-0.2,0.7-0.3,1.3-0.3,2c0,1.2,0.3,2.4,0.9,3.5l-40.5,19c-1.1,0.5-1.5,1.8-1,2.8
	c0.4,0.8,1.1,1.2,1.9,1.2c0.3,0,0.6-0.1,0.9-0.2l41.7-19.6c0.2,0.2,0.5,0.3,0.7,0.4l-48.8,27.1L572.1,262.1z M546.1,111.6h2.2
	c0.5,0,0.8,0.4,0.8,0.8s-0.4,0.8-0.8,0.8h-2.2c-0.5,0-0.8-0.4-0.8-0.8S545.6,111.6,546.1,111.6z M546.1,116h2.2
	c0.5,0,0.8,0.4,0.8,0.8s-0.4,0.8-0.8,0.8h-2.2c-0.5,0-0.8-0.4-0.8-0.8S545.6,116,546.1,116z M544.9,120.3h4.7c0.5,0,0.8,0.4,0.8,0.8
	s-0.4,0.8-0.8,0.8h-4.7c-0.5,0-0.8-0.4-0.8-0.8S544.4,120.3,544.9,120.3z M544.1,124.6h6.1c0.5,0,0.8,0.4,0.8,0.8s-0.4,0.8-0.8,0.8
	h-6.1c-0.5,0-0.8-0.4-0.8-0.8S543.7,124.6,544.1,124.6z M543.2,129h8c0.5,0,0.8,0.4,0.8,0.8s-0.4,0.8-0.8,0.8h-8
	c-0.5,0-0.8-0.4-0.8-0.8S542.7,129,543.2,129z M542.5,133.3h9.5c0.5,0,0.8,0.4,0.8,0.8s-0.4,0.8-0.8,0.8h-9.5
	c-0.5,0-0.8-0.4-0.8-0.8S542,133.3,542.5,133.3z M541.6,137.6h11.1c0.5,0,0.8,0.4,0.8,0.8s-0.4,0.8-0.8,0.8h-11.1
	c-0.5,0-0.8-0.4-0.8-0.8S541.2,137.6,541.6,137.6z M540.6,141.9h13.1c0.5,0,0.8,0.4,0.8,0.8s-0.4,0.8-0.8,0.8h-13.1
	c-0.5,0-0.8-0.4-0.8-0.8S540.2,141.9,540.6,141.9z M539.7,146.3h15c0.5,0,0.8,0.4,0.8,0.8s-0.4,0.8-0.8,0.8h-15
	c-0.5,0-0.8-0.4-0.8-0.8S539.2,146.3,539.7,146.3z M538.2,150.6h17.9c0.5,0,0.8,0.4,0.8,0.8s-0.4,0.8-0.8,0.8h-17.9
	c-0.5,0-0.8-0.4-0.8-0.8S537.8,150.6,538.2,150.6z M537.4,154.9H557c0.5,0,0.8,0.4,0.8,0.8s-0.4,0.8-0.8,0.8h-19.6
	c-0.5,0-0.8-0.4-0.8-0.8S536.9,154.9,537.4,154.9z M529.6,229.9v-0.1c0-2.6,3.1-31.3,7.4-62.3c0.1-0.6,0.2-1.2,0.3-1.8
	c5.6-3.4,9.8-3.5,9.8-3.5l0,0c2,0.3,6,1.2,10.2,3.6c0.1,0.6,0.2,1.2,0.2,1.8c3.2,23.4,5.8,45.5,6.8,56.1l-1,28.2H530
	c-0.1,0-0.1,0-0.2,0c0,0.3,0,0.6-0.1,1c0.1,0,0.2,0,0.2,0h33.2l-0.3,8.6l-34.4,13.3c-0.2,0.1-0.3,0.1-0.4,0.2L529.6,229.9z
	 M525.1,352.1h1v-25.9l1.8-48.2c0.3,0.3,0.8,0.5,1.2,0.5c0.2,0,0.5,0,0.7-0.1l32.9-12.7l-0.2,6.1c-0.3,0.2-0.4,0.4-0.4,0.6v10.9
	l-1.4,37.3l-4.9,2.3V276c0-0.6-1.1-1-2.4-1s-2.4,0.5-2.4,1v48.6c0,0.1,0.1,0.2,0.1,0.3l-6.4,3v-45.7c0-0.6-1.1-1-2.4-1
	s-2.4,0.5-2.4,1v47.9l-6.3,2.9v-46.3c0-0.6-1.1-1-2.4-1c-1.3,0-2.4,0.5-2.4,1v48.6l-1.5,0.7c-0.9,0.4-1.3,1.5-0.8,2.3
	c0.3,0.6,0.9,1,1.6,1c0.3,0,0.5-0.1,0.7-0.2l31.7-14.9l-0.1,3.2L528,342.6c-0.9,0.4-1.3,1.5-0.8,2.3c0.3,0.6,0.9,1,1.6,1
	c0.3,0,0.5-0.1,0.7-0.2l30.8-14.4l-0.2,4.9l-19.4,9.1l-12.7,5.9c-0.9,0.4-1.3,1.5-0.8,2.3c0.3,0.6,0.9,1,1.6,1
	c0.3,0,0.5-0.1,0.7-0.2l30.4-14.3l-1.1,28.9l-35.1,19.5L525.1,352.1z M540.4,520.4v-0.3h-25.2c2-18.1,6.8-51.7,16.1-68.9
	c1.6-2.9,3.3-5.4,5.2-7.2c0,0,0.2-0.4,0.3-0.3c0.1-0.1,0.3,0.3,0.3,0.3c12.7,12.4,18.9,55.1,21.3,76.3h-18V520.4z M564.9,520.4h-0.4
	c-2.7-25.8-10.6-84.6-27.5-102.8v-7.8c0.7-0.4,1.2-1,1.3-1.8c1.2-0.3,2.1-1.3,2.1-2.6s-0.9-2.3-2.1-2.6c-0.3-1.2-1.3-2.1-2.6-2.1
	s-2.3,0.9-2.6,2.1c-1.2,0.3-2.1,1.3-2.1,2.6s0.9,2.3,2.1,2.6c0.2,0.8,0.7,1.4,1.3,1.8v7.8c-16.8,18.1-24.7,76.6-27.4,102.6h-4.9
	l6.4-113.5l115.9-64.4c0.3,0.3,0.7,0.7,1.1,1l-114.7,65.3l54.1-27.3V520.4z M569.2,379l59.2-29.8v22.9
	c-19.1,13.6-35.1,43.3-47.7,88.3c-5.6,20.2-9.3,39.4-11.5,52.5V379z M572.2,520.4c4.5-29.2,20.4-114.4,56.2-143.2v4.4
	c-10,7.7-35.7,36.7-54.6,138.7L572.2,520.4L572.2,520.4z M629.9,417.4c-1.3,1-2.3,2.5-2.6,4.2c-3.3,0.7-5.8,3.6-5.8,7.2
	c0,3.5,2.5,6.4,5.8,7.2c0.4,1.6,1.2,3,2.4,4l-0.1,8h-21c-1.9,0-3.5,1.4-3.5,3.1s1.6,3.1,3.5,3.1h21l-0.6,66.3h-50.1
	c3.2-19.2,19.4-106.1,49.6-131.7v19.9c0,2.4,0.6,4.6,1.5,6.2L629.9,417.4z M637.3,340.2v41.3c0,3.3-1.2,6-2.8,6.1h-0.1
	c-1.6,0-2.9-2.7-2.9-6.1v-41.3c-1.5-0.8-2.6-2.3-3-4c-2.7-0.6-4.7-3-4.7-5.9s2-5.3,4.7-5.9c0.6-2.7,3-4.7,5.9-4.7h0.1
	c2.8,0,5.2,2.1,5.8,4.7c2.7,0.6,4.7,3,4.7,5.9s-2,5.3-4.7,5.9C639.9,337.9,638.8,339.4,637.3,340.2z M640.3,520.5l-0.6-66.4h22.5
	c1.9,0,3.5-1.4,3.5-3.1s-1.6-3.1-3.5-3.1h-22.6l-0.1-8.3c1-1,1.7-2.2,2-3.7c3.3-0.7,5.8-3.6,5.8-7.2c0-3.5-2.5-6.4-5.8-7.2
	c-0.3-1.5-1.1-2.9-2.2-3.9v-3.7c0.7-1.5,1.1-3.4,1.1-5.5V388c30.7,25.1,47,113.4,50.2,132.4h-50.3V520.5z M695.6,520.5
	c-19.2-104.2-45.6-132.3-55.2-139.3v-4c35.9,28.8,51.8,114.3,56.2,143.3H695.6z M698.9,508.9c-2.2-12.9-5.8-30.3-10.8-48.5
	c-12.5-45-28.6-74.7-47.7-88.3v-22.9l58.5,29.5V508.9z M711.8,520.5c2-18,6.8-52,16.2-69.3c1.6-2.9,3.3-5.4,5.2-7.2
	c0,0,0.2-0.4,0.3-0.3c0.1-0.1,0.3,0.3,0.3,0.3c12.8,12.5,19,55.4,21.3,76.5H711.8z M765.7,520.5h-4.6c-2.7-25.8-10.6-84.7-27.5-103
	v-7.8c0.7-0.4,1.2-1,1.3-1.8c1.2-0.3,2.1-1.3,2.1-2.6s-0.9-2.3-2.1-2.6c-0.3-1.2-1.3-2.1-2.6-2.1s-2.3,0.9-2.6,2.1
	c-1.2,0.3-2.1,1.3-2.1,2.6s0.9,2.3,2.1,2.6c0.2,0.8,0.7,1.4,1.3,1.8v7.8c-16.9,18.2-24.8,77.2-27.5,103h-0.4V380.8l55.2,27.8
	l-115-65.5c0.4-0.3,0.8-0.6,1.1-1l116.3,64.6l5,88.8V520.5z M791.3,268.8l10.9-43l10.6,42.9v8.6l-21.5-0.1V268.8z M787.2,285.5
	l29.7,0.1V305h-29.7V285.5z M784,310.3c0.5,0,1-0.1,1.4-0.3h33.4c0.4,0.2,0.9,0.3,1.4,0.3c0.1,0,0.3,0,0.4,0c0,0.3,0,0.6,0,1v32.6
	h-36.9v-32.6c0-0.3,0-0.7,0-1C783.7,310.3,783.9,310.3,784,310.3z M773.9,463.6V352.1h2.9v17.2c0,1.5,1.2,2.8,2.8,2.8
	c0.8,0,1.4-0.3,1.9-0.8c0.5,0.8,1.5,1.3,2.6,1.3h1.8l2.8-5h-4.6c-0.2,0-0.4,0-0.5,0c0-0.4,0.1-0.8,0.1-1.3v-14.2h15.4l-20.4,38.4
	v9.7h-0.2c-2.1,0-3.9,1.1-3.9,2.5s1.7,2.5,3.9,2.5h0.3c0,0.1,0,0.3,0,0.4l0.3,58L773.9,463.6L773.9,463.6z M782.7,391.5l17-32
	l0.1,13l-4.8,8.4h4.9l0.1,17.5h-17.2L782.7,391.5L782.7,391.5z M784,463.6l-0.3-58c0-0.1,0-0.3,0-0.4h36.9c0,0.1,0,0.3,0,0.4l0.3,58
	H784z M821.5,398.4h-17.2l-0.2-17.5h5.1l-5.2-9l-0.1-12.4l17.6,32.1L821.5,398.4L821.5,398.4z M831.2,463.6h-5.5l-0.3-58
	c0-0.1,0-0.3,0-0.4h0.4c2.1,0,3.9-1.1,3.9-2.5s-1.7-2.5-3.9-2.5h-0.2v-9.8L804.5,352h16v14.2c0,0.4,0,0.9,0.1,1.3
	c-0.2,0-0.3,0-0.5,0H815l2.8,5h2.3c1.2,0,2.3-0.6,2.7-1.5c0.5,0.6,1.3,1,2.1,1c1.5,0,2.8-1.2,2.8-2.8V352h3.6L831.2,463.6
	L831.2,463.6z M831.8,199.6c-0.6,0-1.1-0.5-1.1-1.1s0.5-1.1,1.1-1.1s1.1,0.5,1.1,1.1C832.8,199.1,832.3,199.6,831.8,199.6z
	 M837.6,198.5c-1,0-1.7-3.3-1.7-7.4s0.8-7.4,1.7-7.4c1,0,1.7,3.3,1.7,7.4S838.6,198.5,837.6,198.5z M842.5,198.5
	c0-0.6,0.5-1.1,1.1-1.1s1.1,0.5,1.1,1.1s-0.5,1.1-1.1,1.1C842.9,199.6,842.5,199.1,842.5,198.5z M852.8,463.6h-8.7V352.1h8.7V463.6z
	 M788.1,435.9h11.5v-28.1h-11.5V435.9z M349.4,379.6l-7.1-12.3l-7.1,12.3H349.4z M804.5,435.9H816v-28.1h-11.5V435.9z M818.6,392.7
	l-7.1-12.3l-7.1,12.3H818.6z M345.1,312.8c0-6.7-5.5-12.2-12.2-12.2s-12.2,5.5-12.2,12.2s5.5,12.2,12.2,12.2
	S345.1,319.6,345.1,312.8z M322.2,312.8c0-5.9,4.8-10.7,10.7-10.7c5.9,0,10.7,4.8,10.7,10.7s-4.8,10.7-10.7,10.7
	S322.2,318.7,322.2,312.8z M785.6,392.7h14.2l-7.1-12.3L785.6,392.7z M333.4,321.2v-7.1l5,5c0.2,0.2,0.6,0.2,0.8,0
	c0.2-0.2,0.2-0.6,0-0.8l-5-5h7.1c0.3,0,0.5-0.2,0.5-0.5s-0.2-0.5-0.5-0.5h-7.1l5-5c0.2-0.2,0.2-0.6,0-0.8s-0.6-0.2-0.8,0l-5,5v-7.1
	c0-0.3-0.2-0.5-0.5-0.5s-0.5,0.2-0.5,0.5v7.1l-5-5c-0.2-0.2-0.6-0.2-0.8,0c-0.2,0.2-0.2,0.6,0,0.8l5,5h-7.1c-0.3,0-0.5,0.2-0.5,0.5
	s0.2,0.5,0.5,0.5h7.1l-5,5c-0.2,0.2-0.2,0.6,0,0.8s0.6,0.2,0.8,0l5-5v7.1c0,0.3,0.2,0.5,0.5,0.5
	C333.2,321.8,333.4,321.5,333.4,321.2z M332.2,312.9c0-0.4,0.3-0.7,0.7-0.7s0.7,0.3,0.7,0.7s-0.3,0.7-0.7,0.7
	S332.2,313.3,332.2,312.9z M316.4,379.6h14.2l-7.1-12.3L316.4,379.6z M309.4,387.1h-0.2c-2.1,0-3.9,1.1-3.9,2.5s1.7,2.5,3.9,2.5h0.3
	c0,0.1,0,0.3,0,0.4l0.4,66h5l-0.4-66c0-0.1,0-0.3,0-0.4h36.9c0,0.1,0,0.3,0,0.4l0.4,66h5l-0.4-66c0-0.1,0-0.3,0-0.4h0.4
	c2.1,0,3.9-1.1,3.9-2.5s-1.7-2.5-3.9-2.5h-0.2v-9.8l-21.8-39.7l-2.1-3.8l-2,3.8l-21.1,39.7v9.8H309.4z M352.3,378.4v6.8h-17.2
	l-0.2-17.5h5.1l-5.2-9l-0.1-12.4L352.3,378.4z M313.5,378.4l17-32l0.1,13l-4.8,8.4h4.9l0.1,17.5h-17.2v-6.9H313.5z M613.6,198.8h-36
	c0,0.4-0.1,0.8-0.1,1.2h36.2L613.6,198.8z M615.5,223h-39.8c0,0.4-0.1,0.8-0.1,1.2h40L615.5,223z M616.2,232.3l-0.1-1.2h-40.8
	c-0.1,0-0.1,0-0.2,0c0,0.4-0.1,0.8-0.1,1.2c0.1,0,0.2,0,0.3,0H616.2z M614.8,214.9h-38.6c0,0.4-0.1,0.8-0.1,1.2h38.8L614.8,214.9z
	 M596.3,248.4v-1.2h-21c-0.4,0-0.7,0-1.1,0c0,0.4,0,0.8,0,1.1c0.4,0,0.7,0,1.1,0h21V248.4z M617.2,248.4c0,0,0.4,0,1.2,0
	C618,248.4,617.6,248.4,617.2,248.4z M558.4,185.3h-23c0,0.3-0.1,0.6-0.1,1h23.2L558.4,185.3z M614.2,206.9h-37.3
	c0,0.4-0.1,0.8-0.1,1.2h37.5L614.2,206.9z M616.1,240.3v-1.2h-40.8c-0.2,0-0.5,0-0.7,0c0,0.4,0,0.8-0.1,1.1c0.2,0,0.5,0,0.8,0h40.8
	V240.3z M611.1,166.5h-30.7c0,0.4-0.1,0.8-0.1,1.2h30.9L611.1,166.5z M610.5,158.4h-29.3c0,0.4-0.1,0.8-0.1,1.2h29.5L610.5,158.4z
	 M557.9,178.6h-21.8c0,0.3-0.1,0.6-0.1,1h22L557.9,178.6z M557.4,171.9h-20.7c0,0.3-0.1,0.6-0.1,1h20.9L557.4,171.9z M613,190.7
	h-34.7c0,0.4-0.1,0.8-0.1,1.2h34.9L613,190.7z M612.4,182.6H579c0,0.4-0.1,0.8-0.1,1.2h33.6L612.4,182.6z M611.7,174.5h-32.1
	c0,0.4-0.1,0.8-0.1,1.2h32.2L611.7,174.5z"/>
<g>
	<rect x="991.6" y="362.6" class="st0" width="3.6" height="80.8"/>
	<rect x="1016.8" y="447.6" class="st0" width="3.6" height="8.8"/>
	<rect x="1016.8" y="362.6" class="st0" width="3.6" height="80.8"/>
	<rect x="1023.8" y="447.6" class="st0" width="3.6" height="8.8"/>
	<path class="st0" d="M1230.9,295.9v-4.6h0.5c1.4,0,2.6-2,2.6-4.4s-1.2-4.4-2.6-4.4h-6.2c-1.4,0-2.6,2-2.6,4.4s1.2,4.4,2.6,4.4h0.5
		v4.6c-4.2,1.8-11.9,6.3-11.9,14.6h29C1242.9,302.2,1235.1,297.7,1230.9,295.9z"/>
	<rect x="991.6" y="447.6" class="st0" width="3.6" height="8.8"/>
	<rect x="1023.8" y="362.6" class="st0" width="3.6" height="80.8"/>
	<path class="st0" d="M1025.5,295.9v-4.6h0.5c1.4,0,2.6-2,2.6-4.4s-1.2-4.4-2.6-4.4h-6.2c-1.4,0-2.6,2-2.6,4.4s1.2,4.4,2.6,4.4h0.5
		v4.6c-4.2,1.8-11.9,6.3-11.9,14.6h29C1037.4,302.2,1029.7,297.7,1025.5,295.9z"/>
	<path class="st0" d="M1198.8,295.9v-4.6h0.5c1.4,0,2.6-2,2.6-4.4s-1.2-4.4-2.6-4.4h-6.2c-1.4,0-2.6,2-2.6,4.4s1.2,4.4,2.6,4.4h0.5
		v4.6c-4.2,1.8-11.9,6.3-11.9,14.6h29C1210.7,302.2,1202.9,297.7,1198.8,295.9z"/>
	<rect x="984.6" y="362.6" class="st0" width="3.6" height="80.8"/>
	<rect x="984.6" y="447.6" class="st0" width="3.6" height="8.8"/>
	<path class="st0" d="M993.4,295.9v-4.6h0.5c1.4,0,2.6-2,2.6-4.4s-1.2-4.4-2.6-4.4h-6.2c-1.4,0-2.6,2-2.6,4.4s1.2,4.4,2.6,4.4h0.5
		v4.6c-4.2,1.8-11.9,6.3-11.9,14.6h29C1005.3,302.2,997.5,297.7,993.4,295.9z"/>
	<rect x="1223.9" y="460.6" class="st0" width="3.6" height="51.8"/>
	<rect x="1223.9" y="362.6" class="st0" width="3.6" height="80.8"/>
	<rect x="1230.9" y="362.6" class="st0" width="3.6" height="80.8"/>
	<rect x="1230.9" y="460.6" class="st0" width="3.6" height="51.8"/>
	<rect x="1230.9" y="447.6" class="st0" width="3.6" height="8.8"/>
	<rect x="1223.9" y="447.6" class="st0" width="3.6" height="8.8"/>
	<path class="st0" d="M1038.1,527.9c-0.1,0-0.1,0-0.2,0h-0.3c0-0.2,0-0.3,0-0.5V329.6c0-2.9-1-5.5-2.7-7.6c1.7-0.8,2.8-2.4,2.8-4.4
		c0-2.7-2.2-4.8-4.8-4.8h-20c-2.7,0-4.8,2.2-4.8,4.8c0,2,1.2,3.6,2.8,4.4c-1.7,2.1-2.7,4.7-2.7,7.6v194.3c-0.4,0.6-0.7,1.3-0.7,2.1
		c0,0.7,0.2,1.4,0.6,2h-2.7c0-0.2,0-0.3,0-0.5V329.6c0-2.9-1-5.5-2.7-7.6c1.7-0.8,2.8-2.4,2.8-4.4c0-2.7-2.2-4.8-4.8-4.8h-20
		c-2.7,0-4.8,2.2-4.8,4.8c0,2,1.2,3.6,2.8,4.4c-1.7,2.1-2.7,4.7-2.7,7.6v194.3c-0.4,0.6-0.7,1.3-0.7,2.1c0,0.7,0.2,1.4,0.6,2h-2.8
		c-3,0-5.4,2.6-5.4,5.8c0,3.2,2.4,5.8,5.4,5.8h64.7c0.1,0,0.1,0,0.2,0v1.3h29.3v-86.7h-29.2V527.9z M1000,443.4c1.2,0,2.1,1,2.1,2.1
		s-1,2.1-2.1,2.1h-1.3v8.8h1.3c1.2,0,2.1,1,2.1,2.1s-1,2.1-2.1,2.1h-1.3v63.5c0,0.1-0.8,0.3-1.7,0.3c-0.9,0-1.7-0.1-1.7-0.3v-63.5
		h-3.6v63.5c0,0.1-0.8,0.3-1.7,0.3c-0.9,0-1.7-0.1-1.7-0.3v-63.5h-3.6v63.5c0,0.1-0.8,0.3-1.7,0.3c-0.9,0-1.7-0.1-1.7-0.3v-63.5
		h-0.5c-1.2,0-2.1-1-2.1-2.1s1-2.1,2.1-2.1h0.5v-8.8h-0.5c-1.2,0-2.1-1-2.1-2.1s1-2.1,2.1-2.1h0.5v-80.8h-0.5c-1.2,0-2.1-1-2.1-2.1
		s1-2.1,2.1-2.1h0.5v-36.3c0-0.1,0.8-0.3,1.7-0.3c0.9,0,1.7,0.1,1.7,0.3v36.3h3.6v-36.3c0-0.1,0.8-0.3,1.7-0.3
		c0.9,0,1.7,0.1,1.7,0.3v36.3h3.6v-36.3c0-0.1,0.8-0.3,1.7-0.3c0.9,0,1.7,0.1,1.7,0.3v36.3h1.3c1.2,0,2.1,1,2.1,2.1s-1,2.1-2.1,2.1
		h-1.3v80.8H1000z M1032.1,443.4c1.2,0,2.1,1,2.1,2.1s-1,2.1-2.1,2.1h-1.3v8.8h1.3c1.2,0,2.1,1,2.1,2.1s-1,2.1-2.1,2.1h-1.3v63.5
		c0,0.1-0.8,0.3-1.7,0.3c-0.9,0-1.7-0.1-1.7-0.3v-63.5h-3.6v63.5c0,0.1-0.8,0.3-1.7,0.3c-0.9,0-1.7-0.1-1.7-0.3v-63.5h-3.6v63.5
		c0,0.1-0.8,0.3-1.7,0.3c-0.9,0-1.7-0.1-1.7-0.3v-63.5h-0.5c-1.2,0-2.1-1-2.1-2.1s1-2.1,2.1-2.1h0.5v-8.8h-0.5c-1.2,0-2.1-1-2.1-2.1
		s1-2.1,2.1-2.1h0.5v-80.8h-0.5c-1.2,0-2.1-1-2.1-2.1s1-2.1,2.1-2.1h0.5v-36.3c0-0.1,0.8-0.3,1.7-0.3c0.9,0,1.7,0.1,1.7,0.3v36.3
		h3.6v-36.3c0-0.1,0.8-0.3,1.7-0.3c0.9,0,1.7,0.1,1.7,0.3v36.3h3.6v-36.3c0-0.1,0.8-0.3,1.7-0.3c0.9,0,1.7,0.1,1.7,0.3v36.3h1.3
		c1.2,0,2.1,1,2.1,2.1s-1,2.1-2.1,2.1h-1.3v80.8H1032.1z M1044.1,460.1h17.3v74.7h-17.3V460.1z"/>
	<path class="st0" d="M1177.4,448.9v-114c0,0-9.5-1.5-9.5-14h-44.8v-2c0-6.6-5.4-12-12-12h-4.7c-6.6,0-12,5.4-12,12v2h-43.2
		c0,12.5-9.5,14-9.5,14v114h22c0-53.7,37.3-56.1,45.1-56.1v0.1c0,0,0.3,0,0.7,0c0.5,0,0.7,0,0.7,0v-0.1c7.8-0.1,45.1,2.3,45.1,56.1
		H1177.4z M1123.1,349.7c0,6.6-5.4,12-12,12h-4.7c-6.6,0-12-5.4-12-12V345c0-6.6,5.4-12,12-12h4.7c6.6,0,12,5.4,12,12V349.7z"/>
	<path class="st0" d="M1245.9,527.9h-2.8c0.4-0.6,0.6-1.3,0.6-2c0-0.8-0.3-1.5-0.7-2.1V329.6c0-2.9-1-5.5-2.7-7.6
		c1.7-0.8,2.8-2.4,2.8-4.4c0-2.7-2.2-4.8-4.8-4.8h-20c-2.7,0-4.8,2.2-4.8,4.8c0,2,1.2,3.6,2.8,4.4c-1.7,2.1-2.7,4.7-2.7,7.6v197.8
		c0,0.2,0,0.3,0,0.5h-2.7c0.4-0.6,0.6-1.3,0.6-2c0-0.8-0.3-1.5-0.7-2.1V329.6c0-2.9-1-5.5-2.7-7.6c1.7-0.8,2.8-2.4,2.8-4.4
		c0-2.7-2.2-4.8-4.8-4.8h-20c-2.7,0-4.8,2.2-4.8,4.8c0,2,1.2,3.6,2.8,4.4c-1.7,2.1-2.7,4.7-2.7,7.6v197.8c0,0.2,0,0.3,0,0.5h-0.3
		c-0.1,0-0.1,0-0.2,0v-73.8h-29.3v86.7h29.3v-1.3c0.1,0,0.1,0,0.2,0h64.7c3,0,5.4-2.6,5.4-5.8
		C1251.2,530.5,1248.9,527.9,1245.9,527.9z M1175,534.7h-17.3V460h17.3V534.7z M1206.2,362.6h-0.5v161.5c0,0.1-0.8,0.3-1.7,0.3
		c-0.9,0-1.7-0.1-1.7-0.3V362.6h-3.6v161.5c0,0.1-0.8,0.3-1.7,0.3c-0.9,0-1.7-0.1-1.7-0.3V362.6h-3.6v161.5c0,0.1-0.8,0.3-1.7,0.3
		c-0.9,0-1.7-0.1-1.7-0.3V362.6h-1.3c-1.2,0-2.1-1-2.1-2.1s1-2.1,2.1-2.1h1.3v-36.3c0-0.1,0.8-0.3,1.7-0.3c0.9,0,1.7,0.1,1.7,0.3
		v36.3h3.6v-36.3c0-0.1,0.8-0.3,1.7-0.3c0.9,0,1.7,0.1,1.7,0.3v36.3h3.6v-36.3c0-0.1,0.8-0.3,1.7-0.3c0.9,0,1.7,0.1,1.7,0.3v36.3
		h0.5c1.2,0,2.1,1,2.1,2.1S1207.4,362.6,1206.2,362.6z M1238.4,443.4c1.2,0,2.1,1,2.1,2.1s-1,2.1-2.1,2.1h-0.5v8.8h0.5
		c1.2,0,2.1,1,2.1,2.1s-1,2.1-2.1,2.1h-0.5v51.8h0.5c1.2,0,2.1,1,2.1,2.1s-1,2.1-2.1,2.1h-0.5v7.5c0,0.1-0.8,0.3-1.7,0.3
		c-0.9,0-1.7-0.1-1.7-0.3v-7.5h-3.6v7.5c0,0.1-0.8,0.3-1.7,0.3c-0.9,0-1.7-0.1-1.7-0.3v-7.5h-3.6v7.5c0,0.1-0.8,0.3-1.7,0.3
		c-0.9,0-1.7-0.1-1.7-0.3v-7.5h-1.3c-1.2,0-2.1-1-2.1-2.1s1-2.1,2.1-2.1h1.3v-51.8h-1.3c-1.2,0-2.1-1-2.1-2.1s1-2.1,2.1-2.1h1.3
		v-8.8h-1.3c-1.2,0-2.1-1-2.1-2.1s1-2.1,2.1-2.1h1.3v-80.8h-1.3c-1.2,0-2.1-1-2.1-2.1s1-2.1,2.1-2.1h1.3v-36.3
		c0-0.1,0.8-0.3,1.7-0.3c0.9,0,1.7,0.1,1.7,0.3v36.3h3.6v-36.3c0-0.1,0.8-0.3,1.7-0.3c0.9,0,1.7,0.1,1.7,0.3v36.3h3.6v-36.3
		c0-0.1,0.8-0.3,1.7-0.3c0.9,0,1.7,0.1,1.7,0.3v36.3h0.5c1.2,0,2.1,1,2.1,2.1s-1,2.1-2.1,2.1h-0.5v80.8H1238.4z"/>
</g>
<path class="st0" d="M869.1,148.4v392h94v-392H869.1z M895.8,359.7h-16.7V343h16.7V359.7z M895.8,329.1h-16.7v-16.7h16.7V329.1z
	 M895.8,298.4h-16.7v-16.7h16.7V298.4z M895.8,267.7h-16.7V251h16.7V267.7z M895.8,237.1h-16.7v-16.7h16.7V237.1z M895.8,206.4
	h-16.7v-16.7h16.7V206.4z M895.8,175.7h-16.7V159h16.7V175.7z M918.4,359.7h-16.7V343h16.7V359.7z M918.4,329.1h-16.7v-16.7h16.7
	V329.1z M918.4,298.4h-16.7v-16.7h16.7V298.4z M918.4,267.7h-16.7V251h16.7V267.7z M918.4,237.1h-16.7v-16.7h16.7V237.1z
	 M918.4,206.4h-16.7v-16.7h16.7V206.4z M918.4,175.7h-16.7V159h16.7V175.7z M941.1,439.7h-16.7V423h16.7V439.7z M941.1,413.1h-16.7
	v-16.7h16.7V413.1z M941.1,386.4h-16.7v-16.7h16.7V386.4z M941.1,359.7h-16.7V343h16.7V359.7z M941.1,329.1h-16.7v-16.7h16.7V329.1z
	 M941.1,298.4h-16.7v-16.7h16.7V298.4z M941.1,267.7h-16.7V251h16.7V267.7z M941.1,237.1h-16.7v-16.7h16.7V237.1z M941.1,206.4
	h-16.7v-16.7h16.7V206.4z M941.1,175.7h-16.7V159h16.7V175.7z"/>
</svg>
