<?xml version="1.0" encoding="utf-8"?>
<!-- Generator: Adobe Illustrator 23.0.2, SVG Export Plug-In . SVG Version: 6.00 Build 0)  -->
<svg version="1.1" id="Layer_1" xmlns="http://www.w3.org/2000/svg" xmlns:xlink="http://www.w3.org/1999/xlink" x="0px" y="0px"
	 viewBox="0 0 1248.7 433.3" style="enable-background:new 0 0 1248.7 433.3;" xml:space="preserve">
<style type="text/css">
	.st0{fill:#0D1F2C;}
	.st1{fill:none;stroke:#0D1F2C;stroke-width:11;stroke-miterlimit:10;}
	.st2{fill:none;stroke:#0D1F2C;stroke-width:5;stroke-miterlimit:10;}
	.st3{fill:none;stroke:#0D1F2C;stroke-width:11;stroke-linecap:round;stroke-linejoin:round;stroke-miterlimit:10;}
	.st4{fill:#FFFFFF;stroke:#0D1F2C;stroke-width:6;stroke-linecap:round;stroke-linejoin:round;stroke-miterlimit:10;}
	
		.st5{fill:none;stroke:#0D1F2C;stroke-width:3;stroke-linecap:round;stroke-linejoin:round;stroke-miterlimit:10;stroke-dasharray:5,0,0;}
	.st6{fill:#FFFFFF;stroke:#0D1F2C;stroke-width:3;stroke-linecap:round;stroke-linejoin:round;stroke-miterlimit:10;}
	.st7{fill:none;stroke:#0D1F2C;stroke-width:3;stroke-linecap:round;stroke-linejoin:round;stroke-miterlimit:10;}
	.st8{fill:#006A9B;stroke:#000000;stroke-miterlimit:10;}
	.st9{fill:#1D1D1B;}
</style>
<g>
	<g>
		<polygon class="st0" points="704.2,404.4 704.2,300.8 707.8,300.8 707.8,404.4 		"/>
	</g>
	<g>
		<polygon class="st0" points="682.4,403.7 682.4,321.4 686,321.4 686,403.7 		"/>
	</g>
	<g>
		<polygon class="st0" points="662.4,403.7 662.4,335.3 666,335.3 666,403.7 		"/>
	</g>
	<g>
		<polygon class="st0" points="644.2,398.2 644.2,346.2 647.9,346.2 647.9,398.2 		"/>
	</g>
	<g>
		<polygon class="st0" points="626,397.6 626,354.1 629.7,354.1 629.7,397.6 		"/>
	</g>
	<g>
		<polygon class="st0" points="608.5,395.8 608.5,358.9 612.1,358.9 612.1,395.8 		"/>
	</g>
	<g>
		<polygon class="st0" points="589.7,395.8 589.7,365.6 593.3,365.6 593.3,395.8 		"/>
	</g>
	<g>
		<polygon class="st0" points="572.1,393.4 572.1,367.4 575.7,367.4 575.7,393.4 		"/>
	</g>
	<g>
		<polygon class="st0" points="1042.3,404.4 1042.3,300.8 1046,300.8 1046,404.4 		"/>
	</g>
	<g>
		<polygon class="st0" points="1064.1,403.7 1064.1,321.4 1067.8,321.4 1067.8,403.7 		"/>
	</g>
	<g>
		<polygon class="st0" points="1084.1,403.7 1084.1,335.3 1087.8,335.3 1087.8,403.7 		"/>
	</g>
	<g>
		<polygon class="st0" points="1102.3,398.2 1102.3,346.2 1106,346.2 1106,398.2 		"/>
	</g>
	<g>
		<polygon class="st0" points="1120.5,397.6 1120.5,354.1 1124.1,354.1 1124.1,397.6 		"/>
	</g>
	<g>
		<polygon class="st0" points="1138.1,395.8 1138.1,358.9 1141.7,358.9 1141.7,395.8 		"/>
	</g>
	<g>
		<polygon class="st0" points="1156.9,395.8 1156.9,365.6 1160.5,365.6 1160.5,395.8 		"/>
	</g>
	<g>
		<polygon class="st0" points="1174.4,393.4 1174.4,367.4 1178.1,367.4 1178.1,393.4 		"/>
	</g>
	<g>
		<path class="st0" d="M777.4,389.4h95.5v9.7c0,0-63.4,0.8-96,25C777,396.6,777.4,389.4,777.4,389.4z"/>
	</g>
	<g>
		<path class="st0" d="M773,424.1c0-27.5,0.4-34.8,0.5-34.9l0,0l0.2-2.8h101.4V402h-3c0,0-3.9,0-10.2,0.5l0,0
			c-6.4,0.4-15.2,1.3-25.1,2.9l0,0c-19.7,3.2-43.3,9.4-58.9,21.1l0,0l-4.8,3.6v-6H773z M779.3,396.5c-0.1,4.5-0.2,11.4-0.2,21.9l0,0
			c16.6-10.4,38.4-15.9,56.7-18.9l0,0c15-2.4,27.7-3.2,33.2-3.4l0,0v-3.7h-89.6C779.3,393.4,779.3,394.7,779.3,396.5L779.3,396.5z"
			/>
	</g>
	<g>
		<path class="st0" d="M1030.9,389.4h154.7v9.7c0,0-102.6,0.8-155.4,25C1030.2,396.6,1030.9,389.4,1030.9,389.4z"/>
	</g>
	<g>
		<path class="st0" d="M1025.7,424.1c0-27.5,0.7-34.8,0.7-35l0,0l0.3-2.7h160.5V402h-3c0,0-6.3,0-16.7,0.5l0,0
			c-10.4,0.5-24.8,1.3-40.9,2.9l0,0c-32.1,3.2-70.8,9.5-96.5,21.3l0,0l-4.3,2L1025.7,424.1L1025.7,424.1z M1032.1,396.5
			c-0.2,4.6-0.3,11.9-0.4,22.9l0,0c26.8-11.1,63.4-16.9,94.2-20l0,0c25.9-2.6,47.5-3.2,55.2-3.4l0,0v-3.7h-148.9
			C1032.2,393.4,1032.1,394.8,1032.1,396.5L1032.1,396.5z"/>
	</g>
	<g>
		<path class="st0" d="M712.6,389.4H557.9v9.7c0,0,102.6,0.8,155.4,25C713.3,396.6,712.6,389.4,712.6,389.4z"/>
	</g>
	<g>
		<path class="st0" d="M713.5,426.8c-38.7-17.8-106.3-23-137.4-24.3l0,0c-10.4-0.5-16.7-0.5-16.7-0.5l0,0h-3v-15.7h157.7v3l-3,0.3
			l3-0.3v-3h2.7l0.3,2.7c0,0.2,0.7,7.5,0.7,35l0,0v4.7L713.5,426.8L713.5,426.8z M617.6,399.4c30.7,3.1,67.4,8.9,94.2,20l0,0
			c0-15.3-0.3-23.3-0.5-27.1l0,0H562.4v3.7C570.1,396.2,591.7,396.9,617.6,399.4L617.6,399.4z"/>
	</g>
	<g>
		<path class="st0" d="M969,389.4h-95.5v9.7c0,0,63.4,0.8,96,25C969.4,396.6,969,389.4,969,389.4z"/>
	</g>
	<g>
		<path class="st0" d="M968.5,426.5c-23.4-17.5-64.9-22.7-84-23.9l0,0c-6.4-0.5-10.2-0.5-10.2-0.5l0,0h-3v-15.7h98.6v3l-3,0.2l3-0.2
			v-3h2.8l0.2,2.8c0,0.1,0.4,7.4,0.4,34.9l0,0v6L968.5,426.5L968.5,426.5z M910.6,399.5c18.3,3,40.1,8.4,56.7,18.9l0,0
			c0-10.5-0.1-17.4-0.2-21.9l0,0c0-1.7-0.1-3.1-0.1-4.1l0,0h-89.6v3.7C882.9,396.3,895.6,397,910.6,399.5L910.6,399.5z"/>
	</g>
	<g>
		<rect x="757.4" y="279.9" class="st0" width="230.3" height="12.1"/>
	</g>
	<g>
		<path class="st0" d="M754.4,295v-18.2h236.3V292v3H754.4L754.4,295z M987.7,292v-3V292L987.7,292z M760.5,288.9h224.2v-6.1H760.5
			V288.9L760.5,288.9z"/>
	</g>
	<g>
		<g>
			<polygon class="st0" points="728.8,260.2 745.1,201.1 761.3,260.2 			"/>
		</g>
		<g>
			<path class="st0" d="M728.3,263.2v-3l2.9,0.8l-2.9-0.8V263.2h-4l20.2-73.6l20.2,73.6H728.3L728.3,263.2z M756.8,257.2l-12.3-44.7
				l-12.3,44.7H756.8L756.8,257.2z"/>
		</g>
		<g>
			<rect x="729.6" y="265.7" class="st0" width="33" height="132.1"/>
		</g>
		<g>
			<path class="st0" d="M726.5,400.9V262.7h39.1v135.2v3H726.5L726.5,400.9z M762.6,397.9v-3V397.9L762.6,397.9z M732.6,394.8h27
				V268.7h-27V394.8L732.6,394.8z"/>
		</g>
		<g>
			<rect x="723" y="265.7" class="st0" width="12.9" height="132.1"/>
		</g>
		<g>
			<path class="st0" d="M719.5,400.9V262.7h18.9v135.2v3H719.5L719.5,400.9z M735.4,397.9v-3V397.9L735.4,397.9z M725.6,394.8h6.8
				V268.7h-6.8V394.8L725.6,394.8z"/>
		</g>
		<g>
			<rect x="754.3" y="265.7" class="st0" width="12.9" height="132.1"/>
		</g>
		<g>
			<path class="st0" d="M750.7,400.9V262.7h18.9v135.2v3H750.7L750.7,400.9z M766.6,397.9v-3V397.9L766.6,397.9z M756.8,394.8h6.8
				V268.7h-6.8V394.8L756.8,394.8z"/>
		</g>
		<g>
			<rect x="712.8" y="389.4" class="st0" width="65" height="41"/>
		</g>
		<g>
			<rect x="712.4" y="389.4" class="st0" width="32.9" height="41"/>
		</g>
		<g>
			<path class="st0" d="M709.2,433.4v-47h71v44v3H709.2L709.2,433.4z M777.2,430.3v-3V430.3L777.2,430.3z M715.2,427.3h59v-34.9h-59
				V427.3L715.2,427.3z"/>
		</g>
		<g>
			<path class="st0" d="M750.2,257c0,3-2.4,5.5-5.5,5.5l0,0c-3,0-5.5-2.4-5.5-5.5v-9.7c0-3,2.4-5.5,5.5-5.5l0,0c3,0,5.5,2.4,5.5,5.5
				V257z"/>
		</g>
		<g>
			<path class="st0" d="M742.6,211.9v-40.6c0-1,0.8-1.8,1.8-1.8l0,0c1,0,1.8,0.8,1.8,1.8v38.8c0,1-0.8,1.8-1.8,1.8L742.6,211.9
				L742.6,211.9z"/>
		</g>
		<g>
			<path class="st0" d="M726,225.6v-22.7c0-1,0.8-1.8,1.8-1.8l0,0c1,0,1.8,0.8,1.8,1.8v20.9c0,1-0.8,1.8-1.8,1.8L726,225.6
				L726,225.6z"/>
		</g>
		<g>
			<path class="st0" d="M760.8,225.6v-22.7c0-1,0.8-1.8,1.8-1.8l0,0c1,0,1.8,0.8,1.8,1.8v20.9c0,1-0.8,1.8-1.8,1.8L760.8,225.6
				L760.8,225.6z"/>
		</g>
		<g>
			<circle class="st0" cx="744.6" cy="194.5" r="3.9"/>
		</g>
		<g>
			<rect x="756.5" y="244.7" class="st0" width="11.5" height="16.7"/>
		</g>
		<g>
			<rect x="723" y="244.7" class="st0" width="11.5" height="16.7"/>
		</g>
		<g>
			<path class="st0" d="M752.6,264.4v-22.8h17.6v19.7v3L752.6,264.4L752.6,264.4z M767.1,261.4v-3V261.4L767.1,261.4z M758.6,258.4
				h5.5v-10.7h-5.5V258.4L758.6,258.4z"/>
		</g>
		<g>
			<path class="st0" d="M719.1,264.4v-22.8h17.6v19.7v3L719.1,264.4L719.1,264.4z M733.6,261.4v-3V261.4L733.6,261.4z M725.1,258.4
				h5.5v-10.7h-5.4L725.1,258.4L725.1,258.4z"/>
		</g>
		<g>
			<path class="st0" d="M723.6,246.1v-3l3,0.5l-3-0.5V246.1h-3.5l4.8-30.9h6l4.5,30.9H723.6L723.6,246.1z M728.3,240L728.3,240
				l-0.6-3.9l-0.6,3.9H728.3z"/>
		</g>
		<g>
			<path class="st0" d="M758.5,246.1v-3l3,0.5l-3-0.5V246.1H755l4.8-30.9h6l4.5,30.9H758.5L758.5,246.1z M763.2,240l-0.6-3.9
				L762,240H763.2L763.2,240z"/>
		</g>
		<g>
			<polygon class="st0" points="724.6,240.9 727.6,221.6 730.4,240.9 			"/>
		</g>
		<g>
			<polygon class="st0" points="759.2,240.9 762.6,218.9 765.7,240.9 			"/>
		</g>
	</g>
	<g>
		<polygon class="st0" points="985.7,260.2 1002,201.1 1018.2,260.2 		"/>
	</g>
	<g>
		<path class="st0" d="M985.2,263.2v-3l2.9,0.8l-2.9-0.8V263.2h-4l20.2-73.6l20.2,73.6H985.2L985.2,263.2z M1013.7,257.2l-12.3-44.7
			l-12.3,44.7H1013.7L1013.7,257.2z"/>
	</g>
	<g>
		<rect x="986.5" y="265.7" class="st0" width="33" height="132.1"/>
	</g>
	<g>
		<path class="st0" d="M983.5,400.9V262.7h39.1v135.2v3H983.5L983.5,400.9z M1019.5,397.9v-3V397.9L1019.5,397.9z M989.5,394.8h27
			V268.7h-27V394.8L989.5,394.8z"/>
	</g>
	<g>
		<rect x="980" y="265.7" class="st0" width="12.9" height="132.1"/>
	</g>
	<g>
		<path class="st0" d="M976.4,400.9V262.7h18.9v135.2v3H976.4L976.4,400.9z M992.3,397.9v-3V397.9L992.3,397.9z M982.5,394.8h6.8
			V268.7h-6.8V394.8L982.5,394.8z"/>
	</g>
	<g>
		<rect x="1011.2" y="265.7" class="st0" width="12.9" height="132.1"/>
	</g>
	<g>
		<path class="st0" d="M1007.6,400.9V262.7h18.9v135.2v3H1007.6L1007.6,400.9z M1023.6,397.9v-3V397.9L1023.6,397.9z M1013.7,394.8
			h6.8V268.7h-6.8V394.8L1013.7,394.8z"/>
	</g>
	<g>
		<rect x="969.7" y="389.4" class="st0" width="65" height="41"/>
	</g>
	<g>
		<rect x="969.3" y="389.4" class="st0" width="32.9" height="41"/>
	</g>
	<g>
		<path class="st0" d="M966.1,433.4v-47h71.1v44v3H966.1L966.1,433.4z M1034.1,430.3v-3V430.3L1034.1,430.3z M972.2,427.3h58.9
			v-34.9h-58.9V427.3L972.2,427.3z"/>
	</g>
	<g>
		<path class="st0" d="M1007.1,257c0,3-2.4,5.5-5.5,5.5l0,0c-3,0-5.5-2.4-5.5-5.5v-9.7c0-3,2.4-5.5,5.5-5.5l0,0c3,0,5.5,2.4,5.5,5.5
			V257z"/>
	</g>
	<g>
		<path class="st0" d="M999.5,211.9v-40.6c0-1,0.8-1.8,1.8-1.8l0,0c1,0,1.8,0.8,1.8,1.8v38.8c0,1-0.8,1.8-1.8,1.8L999.5,211.9
			L999.5,211.9z"/>
	</g>
	<g>
		<path class="st0" d="M983,225.6v-22.7c0-1,0.8-1.8,1.8-1.8l0,0c1,0,1.8,0.8,1.8,1.8v20.9c0,1-0.8,1.8-1.8,1.8L983,225.6L983,225.6
			z"/>
	</g>
	<g>
		<path class="st0" d="M1017.7,225.6v-22.7c0-1,0.8-1.8,1.8-1.8l0,0c1,0,1.8,0.8,1.8,1.8v20.9c0,1-0.8,1.8-1.8,1.8L1017.7,225.6
			L1017.7,225.6z"/>
	</g>
	<g>
		<circle class="st0" cx="1001.5" cy="194.5" r="3.9"/>
	</g>
	<g>
		<rect x="1013.4" y="244.7" class="st0" width="11.5" height="16.7"/>
	</g>
	<g>
		<rect x="979.9" y="244.7" class="st0" width="11.5" height="16.7"/>
	</g>
	<g>
		<path class="st0" d="M1009.5,264.4v-22.8h17.6v19.7v3L1009.5,264.4L1009.5,264.4z M1024.1,261.4v-3V261.4L1024.1,261.4z
			 M1015.6,258.4h5.5v-10.7h-5.5V258.4L1015.6,258.4z"/>
	</g>
	<g>
		<path class="st0" d="M976,264.4v-22.8h17.6v19.7v3L976,264.4L976,264.4z M990.5,261.4v-3V261.4L990.5,261.4z M982,258.4h5.5v-10.7
			H982V258.4L982,258.4z"/>
	</g>
	<g>
		<path class="st0" d="M980.5,246.1v-3l3,0.5l-3-0.5V246.1H977l4.8-30.9h6l4.5,30.9H980.5L980.5,246.1z M985.2,240l-0.6-3.9L984,240
			H985.2L985.2,240z"/>
	</g>
	<g>
		<path class="st0" d="M1015.5,246.1v-3l3,0.5l-3-0.5V246.1h-3.5l4.8-30.9h6l4.5,30.9H1015.5L1015.5,246.1z M1020.2,240l-0.6-3.9
			l-0.6,3.9H1020.2L1020.2,240z"/>
	</g>
	<g>
		<path class="st0" d="M790.8,290.4v-18.2c0-1.7,1.4-3,3-3l0,0c1.7,0,3,1.4,3,3v15.2c0,1.7-1.4,3-3,3H790.8L790.8,290.4z"/>
	</g>
	<g>
		<path class="st0" d="M861.7,290.4v-18.2c0-1.7,1.4-3,3-3l0,0c1.7,0,3,1.4,3,3v15.1c0,1.7-1.4,3-3,3h-3V290.4z"/>
	</g>
	<g>
		<path class="st0" d="M928.9,290.4v-18.2c0-1.7,1.4-3,3-3l0,0c1.7,0,3,1.4,3,3v15.1c0,1.7-1.4,3-3,3h-3V290.4z"/>
	</g>
	<g>
		<path class="st0" d="M1050.2,300.8c-11.9-13-19.2-25.2-23.4-34.1c-1.5-3.1-2.6-5.8-3.4-8c-2.1,0.2-4.3,0.3-6.3,0.3
			c3,8.5,10.9,26.4,28.7,45.9c24.7,27,68.5,57,144.5,69.8l1-6C1116.4,356,1074,326.7,1050.2,300.8z"/>
	</g>
	<g>
		<path class="st0" d="M557.9,368.7l1,6c76-12.8,119.8-42.8,144.5-69.8c15-16.4,22.9-31.5,26.9-41c-2.2,0.1-4.5,0.2-6.8,0.3
			C712.2,289.6,673.8,349,557.9,368.7z"/>
	</g>
	<g>
		<polygon class="st0" points="980.3,243.1 984.6,215.6 988.5,243.1 		"/>
	</g>
	<g>
		<polygon class="st0" points="1015.3,243.1 1019.5,215.6 1023.5,243.1 		"/>
	</g>
</g>
<g>
	<g>
		<polygon class="st0" points="104.2,387.2 92.5,387.2 142.7,250.8 154.3,250.8 		"/>
	</g>
	<g>
		<polygon class="st0" points="196.7,387.2 208.4,387.2 158.2,250.8 146.6,250.8 		"/>
	</g>
	<g>
		<path class="st0" d="M48.2,248.4c0-57,46.2-103.2,103.2-103.2l0,0c57,0,103.2,46.2,103.2,103.2l0,0c0,57-46.2,103.2-103.2,103.2
			l0,0C94.4,351.6,48.2,305.4,48.2,248.4L48.2,248.4z M54.1,248.4c0,26.9,10.9,51.2,28.5,68.8l0,0c17.6,17.6,41.9,28.5,68.8,28.5
			l0,0c26.9,0,51.2-10.9,68.8-28.5l0,0c17.6-17.6,28.5-41.9,28.5-68.8l0,0c0-26.9-10.9-51.2-28.5-68.8l0,0
			c-17.6-17.6-41.9-28.5-68.8-28.5l0,0c-26.9,0-51.2,10.9-68.8,28.5l0,0C65,197.2,54.1,221.5,54.1,248.4L54.1,248.4L54.1,248.4z"/>
	</g>
	<g>
		<path class="st0" d="M58.7,248.4c0-51.2,41.5-92.7,92.7-92.7l0,0c51.2,0,92.7,41.5,92.7,92.7l0,0c0,51.2-41.5,92.7-92.7,92.7l0,0
			C100.2,341.1,58.7,299.6,58.7,248.4L58.7,248.4z M62.2,248.4c0,24.6,10,46.9,26.1,63.1l0,0c16.1,16.1,38.4,26.1,63.1,26.1l0,0
			c24.6,0,46.9-10,63.1-26.1l0,0c16.1-16.1,26.1-38.4,26.1-63.1l0,0c0-24.6-10-46.9-26.1-63.1l0,0c-16.1-16.1-38.4-26.1-63.1-26.1
			l0,0c-24.6,0-46.9,10-63.1,26.1l0,0C72.2,201.5,62.2,223.8,62.2,248.4L62.2,248.4L62.2,248.4z"/>
	</g>
	<g>
		<polygon class="st0" points="148.5,247.7 148.5,148.2 152,148.2 152,247.7 		"/>
	</g>
	<g>
		<polygon class="st0" points="148.5,350.8 148.5,251.4 152,251.4 152,350.8 		"/>
	</g>
	<g>
		<polygon class="st0" points="84.9,324.9 148.8,248.7 151.5,250.9 87.6,327.1 		"/>
	</g>
	<g>
		<polygon class="st0" points="63.2,298.8 149.3,249.1 151.1,252.1 64.9,301.8 		"/>
	</g>
	<g>
		<polygon class="st0" points="52,266.6 150,249.3 150.6,252.8 52.6,270.1 		"/>
	</g>
	<g>
		<polygon class="st0" points="50,236.1 50.7,232.6 148.6,249.9 148,253.4 		"/>
	</g>
	<g>
		<polygon class="st0" points="60,202.1 61.8,199.1 148,248.9 146.2,251.9 		"/>
	</g>
	<g>
		<polygon class="st0" points="82.4,173 85,170.8 147,245 144.4,247.2 		"/>
	</g>
	<g>
		<polygon class="st0" points="113.3,152.9 116.6,151.7 150.6,245.2 147.4,246.4 		"/>
	</g>
	<g>
		<polygon class="st0" points="146.9,252.6 150.2,251.4 184.3,344.9 181,346.1 		"/>
	</g>
	<g>
		<polygon class="st0" points="147.1,250.9 149.7,248.7 213.7,324.9 211,327.1 		"/>
	</g>
	<g>
		<polygon class="st0" points="147.5,252.1 149.2,249.1 235.4,298.8 233.7,301.8 		"/>
	</g>
	<g>
		<polygon class="st0" points="148,252.8 148.6,249.3 246.6,266.6 246,270.1 		"/>
	</g>
	<g>
		<polygon class="st0" points="149.9,249.9 247.9,232.6 248.5,236.1 150.5,253.4 		"/>
	</g>
	<g>
		<polygon class="st0" points="150.6,248.9 236.8,199.1 238.5,202.1 152.3,251.9 		"/>
	</g>
	<g>
		<polygon class="st0" points="151.5,245 213.5,170.8 216.2,173 154.2,247.2 		"/>
	</g>
	<g>
		<polygon class="st0" points="147.9,245.2 181.9,151.7 185.2,152.9 151.2,246.4 		"/>
	</g>
	<g>
		<circle class="st0" cx="151.4" cy="248.4" r="10.5"/>
		<path class="st0" d="M138,248.4c0-7.4,6-13.4,13.4-13.4l0,0c7.4,0,13.4,6,13.4,13.4l0,0c0,7.4-6,13.4-13.4,13.4l0,0
			C144,261.8,138,255.8,138,248.4L138,248.4z M143.8,248.4c0,4.2,3.4,7.6,7.6,7.6l0,0c4.2,0,7.6-3.4,7.6-7.6l0,0
			c0-4.2-3.4-7.6-7.6-7.6l0,0C147.2,240.9,143.8,244.3,143.8,248.4L143.8,248.4L143.8,248.4z"/>
	</g>
	<g>
		<circle class="st0" cx="223.1" cy="169.9" r="7"/>
	</g>
	<g>
		<circle class="st0" cx="248" cy="201" r="7"/>
	</g>
	<g>
		<circle class="st0" cx="258.9" cy="232.9" r="7"/>
	</g>
	<g>
		<circle class="st0" cx="255.8" cy="271" r="7"/>
	</g>
	<g>
		<ellipse class="st0" cx="243.3" cy="304.4" rx="7" ry="7.8"/>
	</g>
	<g>
		<ellipse class="st0" cx="219.2" cy="333.2" rx="7" ry="7.8"/>
	</g>
	<g>
		<ellipse class="st0" cx="150.1" cy="357.6" rx="7" ry="7.8"/>
	</g>
	<g>
		<ellipse class="st0" cx="82" cy="331.2" rx="7" ry="7.8"/>
	</g>
	<g>
		<ellipse class="st0" cx="58.3" cy="302.8" rx="7" ry="7.8"/>
	</g>
	<g>
		<ellipse class="st0" cx="45.1" cy="269.8" rx="7" ry="7.8"/>
	</g>
	<g>
		<ellipse class="st0" cx="43.2" cy="232.9" rx="7" ry="7.8"/>
	</g>
	<g>
		<ellipse class="st0" cx="56" cy="197.5" rx="7" ry="7.8"/>
	</g>
	<g>
		<ellipse class="st0" cx="79.3" cy="165.7" rx="7" ry="7.8"/>
	</g>
	<g>
		<ellipse class="st0" cx="111.6" cy="145.1" rx="7" ry="7.8"/>
	</g>
	<g>
		<ellipse class="st0" cx="149.3" cy="139.2" rx="7" ry="7.8"/>
	</g>
	<g>
		<ellipse class="st0" cx="185" cy="144.3" rx="7" ry="7.8"/>
	</g>
</g>
<rect y="386.2" class="st0" width="556.7" height="42.6"/>
<g>
	<path class="st1" d="M292.7,387.2c0,0-55.1-218,49.8-308.7c5.8-5,14.3-5,20.1,0c104.9,90.8,49.8,308.7,49.8,308.7H292.7z"/>
	<path class="st1" d="M303.6,130.3c0,0,43.3,18.4,96.6,0"/>
	<polyline class="st2" points="278.2,228.6 400.2,134.3 354.1,138.4 285.9,182.9 	"/>
	<path class="st2" d="M412.8,159.4C379.5,204.7,333,240.7,278.2,271l2.4,41.2c57.7-29.9,105.9-68.7,140.1-120.5l6,44.1
		c-21.6,43.8-77.3,82.3-140.4,119.6l6.4,31.8c57.5-32.3,108.1-66,133.7-105.4l-3.7,37.2c-22.4,35.4-47.5,63.2-80.6,68.2h35.1
		c-40-10.3-73.6-26.8-94.5-55.9l-4.6-43.4c28.4,35.6,80.5,60.1,137.8,82.1l6.6-36.8c-60.4-29.6-115.1-59.9-143.9-93.3l3.9-38.9
		c40.9,34.3,89.3,56.8,144.1,69l-4.1-57.9c-52.6-6.2-104.1-13.8-131.1-50.9l12-26.9c37.8,27.9,75.4,45.9,112.7,44"/>
</g>
<g>
	<rect x="462.1" y="214.7" class="st3" width="49.5" height="178.2"/>
	<rect x="449.6" y="162.8" class="st3" width="74.5" height="51.9"/>
	<rect x="449.6" y="145.3" class="st3" width="74.5" height="16.5"/>
	<rect x="460.4" y="85.2" class="st3" width="52.9" height="16.5"/>
	<path class="st3" d="M495.9,36.9h-18.2c1,18.2-5.6,34-17.3,48.3h52.9C502,71.1,494.8,55.5,495.9,36.9z"/>
	<path class="st3" d="M513.7,101.7H460c1.9,16.8-1.6,31.3-10.4,43.6h74.5C515.4,134.5,512.4,119.6,513.7,101.7z"/>
	<line class="st3" x1="524.1" y1="214.7" x2="524.1" y2="386.2"/>
	<line class="st3" x1="449.6" y1="214.7" x2="449.6" y2="386.2"/>
	<circle class="st4" cx="486.8" cy="188.8" r="25.5"/>
	<line class="st3" x1="486.8" y1="36.9" x2="486.8" y2="7.2"/>
	<line class="st5" x1="474" y1="93.5" x2="499.6" y2="93.5"/>
	<line class="st5" x1="461.3" y1="153.6" x2="512.4" y2="153.6"/>
	<polyline class="st6" points="486.8,178.4 486.8,191.1 498.4,202.6 	"/>
	<line class="st7" x1="450.4" y1="259.7" x2="524.1" y2="259.7"/>
	<line class="st7" x1="450.4" y1="304.4" x2="524.1" y2="304.4"/>
	<line class="st7" x1="450.4" y1="348.2" x2="524.1" y2="348.2"/>
</g>
<rect x="1187.1" y="386.3" class="st0" width="61.6" height="47"/>
<path class="st8" d="M559.8,387.5H558c-0.5,0-1-0.4-1-1v-16.9c0-0.5,0.4-1,1-1h1.8c0.5,0,1,0.4,1,1v16.9
	C560.8,387.1,560.3,387.5,559.8,387.5z"/>
<path class="st9" d="M1192.1,387.5h-1.8c-0.5,0-1-0.4-1-1v-16.9c0-0.5,0.4-1,1-1h1.8c0.5,0,1,0.4,1,1v16.9
	C1193.1,387.1,1192.6,387.5,1192.1,387.5z"/>
</svg>
